<mxfile host="app.diagrams.net" agent="Mozilla/5.0 (Windows NT 10.0; Win64; x64) AppleWebKit/537.36 (KHTML, like Gecko) Chrome/134.0.0.0 Safari/537.36" version="26.0.14">
  <diagram name="Page-1" id="Lbf7_INwO01DMQOPvpz0">
    <mxGraphModel dx="989" dy="509" grid="1" gridSize="10" guides="1" tooltips="1" connect="1" arrows="1" fold="1" page="1" pageScale="1" pageWidth="200" pageHeight="500" math="0" shadow="0">
      <root>
        <mxCell id="0" />
        <mxCell id="1" parent="0" />
        <mxCell id="7" value="" style="curved=1;startArrow=none;endArrow=block;exitX=0.5;exitY=1;entryX=0.5;entryY=0;entryDx=0;entryDy=0;exitDx=0;exitDy=0;" parent="1" source="4T3bCirenjGZTBYiXq4K-11" target="4T3bCirenjGZTBYiXq4K-22" edge="1">
          <mxGeometry relative="1" as="geometry">
            <Array as="points" />
            <mxPoint x="195" y="64" as="sourcePoint" />
          </mxGeometry>
        </mxCell>
        <mxCell id="8" value="" style="curved=1;startArrow=none;endArrow=block;entryX=0.5;entryY=0;entryDx=0;entryDy=0;" parent="1" source="4T3bCirenjGZTBYiXq4K-32" target="4T3bCirenjGZTBYiXq4K-20" edge="1">
          <mxGeometry relative="1" as="geometry">
            <Array as="points" />
            <mxPoint x="201" y="260" as="sourcePoint" />
            <mxPoint x="195" y="238" as="targetPoint" />
          </mxGeometry>
        </mxCell>
        <mxCell id="4T3bCirenjGZTBYiXq4K-11" value="" style="image;aspect=fixed;perimeter=ellipsePerimeter;html=1;align=center;shadow=0;dashed=0;spacingTop=3;image=img/lib/active_directory/user_accounts.svg;" vertex="1" parent="1">
          <mxGeometry x="176" y="10" width="50" height="48.5" as="geometry" />
        </mxCell>
        <mxCell id="4T3bCirenjGZTBYiXq4K-13" value="&lt;div&gt;&lt;span data-canva-clipboard=&quot;ewAiAGEAIgA6ADUALAAiAGgAIgA6ACIAdwB3AHcALgBjAGEAbgB2AGEALgBjAG8AbQAiACwAIgBjACIAOgAiAEQAQQBHAGgAdwBuAEQAZwBMAFUATQAiACwAIgBpACIAOgAiADMAagBKADUAdQBrAFEAMwBhAHAAaABLAEkAZgBUAEUAcgBkAE0AdwBaAGcAIgAsACIAYgAiADoAMQA3ADQAMgAwADAANgAwADgANgAyADgAMgAsACIAagAiADoAWwB7ACIAQQAiADoAewAiAEsAIgA6AHsAfQAsACIARAAiADoAewB9ACwAIgBFACIAOgB7AH0ALAAiAFMAIgA6AHsAfQAsACIARgAiADoAewAiAEEAIgA6ACIASQBkAGUAbgB0AGkAdAB5AC4AcABuAGcAIgAsACIAQgAiADoAMQB9ACwAIgBHACIAOgB7AH0ALAAiAEgAIgA6AHsAIgBCACIAOgAiAG4AbwBuAGUAIgAsACIAQwAiADoAIgAjADAAMAAwADAAMAAwACIALAAiAEQAIgA6ACIAIwBmAGYAZgBmAGYAZgAiAH0ALAAiAEoAIgA6AHsAIgBGACIAOgAiACMAMAAwADAAMAAwADAAIgB9ACwAIgBQACIAOgB7AH0AfQB9AF0ALAAiAEEAPwAiADoAIgBCACIALAAiAEEAIgA6AFsAewAiAEEAIgA6AC0ANwAuADEAMAA1ADQAMgA3ADMANQA3ADYAMAAxADAAMAAyAGUALQAxADUALAAiAEQAIgA6ADQAMAAuADAAMAAwADAAMAAwADAAMAAwADAAMAAwADAAMQAsACIAQwAiADoANAAwAC4AMAAwADAAMAAwADAAMAAwADAAMAAwADAAMAAxACwAIgBBAD8AIgA6ACIASQAiACwAIgBhACIAOgB7ACIAQgAiADoAewAiAEEAIgA6AHsAIgBBACIAOgAiAE0AQQBHAGgAdwBzAEkAbAB3AFUASQAiACwAIgBCACIAOgAxAH0ALAAiAEIAIgA6AHsAIgBEACIAOgA0ADAALgAwADAAMAAwADAAMAAwADAAMAAwADAAMAAwADEALAAiAEMAIgA6ADQAMAAuADAAMAAwADAAMAAwADAAMAAwADAAMAAwADAAMQB9AH0AfQB9AF0ALAAiAEIAIgA6ADQAMAAsACIAQwAiADoANAAwAH0A&quot;&gt;&lt;/span&gt;&lt;/div&gt;" style="text;whiteSpace=wrap;html=1;" vertex="1" parent="1">
          <mxGeometry x="330" y="160" width="30" height="20" as="geometry" />
        </mxCell>
        <mxCell id="4T3bCirenjGZTBYiXq4K-20" value="" style="image;aspect=fixed;perimeter=ellipsePerimeter;html=1;align=center;shadow=0;dashed=0;spacingTop=3;image=img/lib/active_directory/database_server.svg;" vertex="1" parent="1">
          <mxGeometry x="180" y="280" width="41" height="50" as="geometry" />
        </mxCell>
        <mxCell id="4T3bCirenjGZTBYiXq4K-21" value="" style="shape=image;verticalLabelPosition=bottom;labelBackgroundColor=default;verticalAlign=top;aspect=fixed;imageAspect=0;image=data:image/png,iVBORw0KGgoAAAANSUhEUgAAAXYAAACHCAMAAAA1OYJfAAAAbFBMVEX///8AlogFmIoAkIH6/f0Aj4AAk4Tv+fi/3toTnpGdzcbo9fTC3tqGxb90vbXR6uiOycJPraPl8/I/qJyx2dTa7uzJ5eKm1M9rubDG4t+Mx8AxopZasae23Nh9v7eo1dBUq6E2p5ttu7JhtaspxJQsAAAJ4ElEQVR4nO2c4ZqiOgyGgdIKuqLIgI6I7oz3f48HmhbakoI7O7junnx/5hmppb6UNEkDQUAikUgkEolEIpFIJBKJRCKRSCQSiUQikUgkEolEIpFIJBKJRCKRSCQSiUQikUgkEolEIpH+UZW3a54KxkRaZMfyT4/m/6HdNRUiDMOoVftHiOiz+tNj+ufVFExI4oPCkNXHPz2uBRRL/elRdKpq5jBX5EX6Nvvl8rr16Xp4wuC13uQp/Xfortln97xO2/nUzrA6P+2TDdJsL7t5X26cWvGJo9AleJZjYzOVcOET333L+Mpkf5qdnivB2jOy2neYcSbHFCp1jXm6H02MqGvG17896jntIuGDDrammf5+wkKfvgP7Kg3bVT6cxb6GYXDPdF9F6AgZuzi+Qyo/Xhx749r08YTfT3awMPYN73qKZrHrSZzjhz3Y2y+wrdXwOdiPbBp6J3ad6uE1sN/0KDju+WrsgwUcZvzHymj4FOyPUG+5bye6UNhTRNHzsKf97L2jxxX24n7Ksuyane5FxPWVEmnsdLQw9uQh6i33CU9SYV8pz8zSNwzxMewJH6wG6j4BdmZ4KPFhXbOxZXoC9k2I2HXHUCju/nnbY19ojA9hzwebIdBbU2H/YX/6pmwNH/zkJ2D/GFN3zXOUwsf+3/0K2EvZqAYDL7C2OPZgkwL3tP9keez7secYRg6++ASXRmS+Xl4B+6mDx44xLJGYRfRgDzZquvfWZ3HsmIkRZ8tEB1WqL43wmZmHsc8be6zFI9gVuzjYCnvqDvJhV/6+6J21xbFnSJgUHqwFcTs49aHHIX4Ee1wdP3+2YXmU1j+vCU5wczvlXYvikh0ro4nCflgNGsXNe6Zs+oHZU3eQF3sMi3Ef3S6NfYV4MeGnMdmDsjYvjG+6z2J/r7kMzGHBa0PObJxv2OVdE2jQBu286INNwB5yU+6Fg567Xu9dH+KC/Fof9uADBqb/XRr7GZnsrBywB0c7fg1xh3ge+21w7pSvwW5OkysXdhOe6EMb99vSmlhq5GSXw6tkazb2If3YM7jaevxLY08RNybvqQeb3L0sAic7i303BsftfEM+CnR5390D2IsOnErGSGpiHFb7sV8Bu75SC2PfITamjSY09WS83go8CTyLfcXAtjDOmJ7Uw2xuddJRi7Qg0tgMq+I8duU9wj97hl2YB7Brw7cw9i3iPdZ6DyD+RBLwHisziz0OefTzekzeq/fmmmrEA5hKWe96X5WHskq2BeOn/qjGbiaUbajSSmhQG9k/G80QP/ZCWBdqYewF4j2+AfZgl2K54DBCO5r3ZKx92SP8SuOHXeATI7+8ug3GX3kyK2/OYQUXLTZ7E6O0ux+7Ey8ti70dxghrqn7T3pMLRlaq4NfDpR3c1IX+PxYjq2Nq1m8/ygW1vz0gOzPKQ3qxw/CHBNqy2MuxaRf7brIHh49+gXMboGgU9mQ3kufUEKD0iyaYZizEkZrFDpx6hzPGF1Uv9lrYVmlZ7M3IjMCNHFQfudKldrgLNA+psDNX3Le/FtuL6ju3Jr+rOewVc64aRKpuYsaHXS/n/c26LPbbCHs7QWzD2bguJp7b821z+EnKmKb33WFFxdeNYB47BEjn4YMDuO5OaIBjX13UnBlujmWxr0fYW8ttrlrxaeTMhGg67Nexny1SYGSwgF5qBns8jo9kEtg9O4a93IbaoR26fzL21j20cmDIxvZ3YX9jpvUFmxNGnuKOGeywoFqnegMf0l5UAbtYl7Ds/LidT1EfGpubj0/GznZGXiDeYoUzk9j5SN5VUn5jyCSr6BxfOeaw15bBkoqdnKKU2tQT/dJjlG4wszbiubY9/DColx9oDcekbTdThEpmq/jQrLdZdl03Bxe7DohYuka80GnskHhw0haZHQBJeSsH2tNaLtey2BMHrGiGdMzR47dPejKTfntyj7rMQJddZDysQwv7kCtj4j4qc5nGLgm7u9YVEql6sLfjOdtdP9VvV6ES5MB8+9qTfvsE9iZyE4w29uDYHxc8WtsYJrE7vqgWuO6WwUewdxnmYu12/NQotZ3IinqDbWuDvhalxnckmWVjD8p6uDBMbM2+JrE3cG734zUEvuZwtW3XC4+I6su5QQb9zJyMznkEcYYXoUIjtKM57DqrK4S1ljmbs281G8CHhjWbxA4FA+klt1XAGczssvJkjtKTKQ/OymPomRnIdrGcyIFp7F/KQG6ZmmYf52Py/t4ct3AdRnviu1NfLxTyz/7jKeyb/oraUr2YrpQ/Febomfl2sZHh6dlf+ht9Md8OMWPI7sZG3g+GYW/RrFNtj3jv/k1hX/vrAGUnxvr8KtjN3SW5hRqUxWTp79d2lyBDYv+MxIO91ZvOx/cRzBT2dIza1JCWfCHsxl5qt4Ua3Pxr6ZSNmcEuNxHM3x/4Z7vUWpl+XaigvHoMu9otREvrQ2dQL4N9qBzoajG6pNAk9a9VDsCvdYrOJ7EHpZqqqsMVFhCBICxK94hOTjr3dbAPdTKiCpLxroc72b9UJ7MCV84+OI1dddhvVHCkBylVA4ZW30OGzHDdXwe7rgoLi27ezFCPhO+JyW/HDmUvLDH/wyrlG7ggeAoNdgqHSON1sOt0WLidWUsl9a/VQK4waHPYZfKgz0/Bf0he4oIleLUgkBpuhRfCrkOmmbVUNvlqxS/kX2xDMIcd1gOdgL976ELho6/yXqeT9f+vhB2tb0f15fp2WNtCq/zOwe5+s7Lz5eCcs9GDa86WLH7i/j57Jezf+zQHfhTWttT0ZRzsdd6Yt1IF87QPMVXAJTT3OMklS7iPfAs9bNEOZ3kp7N/47NJkjqMrPtomu7LLiLzfwChrIDETLLzsk6o7nJwL7jooqn6I19n6uN7eIy6fGoW9wPFNoBWrlKO6oq+FvdsU+z3qc9irvqqLQe5PVeT12GUDfbRPlBllB30NpVCJNJlfh/B3It8MRXZcXZcXw/7Ic6nTY5jLQB7RvO+AHUusCGtndT/qIVDrrhP+WoLbQVuhV8M+nXXs3BxfvZbS7DZHE2IZK6ax5yOoghd2b1vuHC+V6fbWG3SqoTGs5i+H/fffOSCtw8Tu0uosBusBG3ucp/qXlduIDxvKnbX5GF3o95QL/dRBe/wWBxd51sln4vdg1GCRWIERm5lCrSLZ7gnYJ9+wMfPCgVYrKIGYfixptz7ldZqmdXE5bddNZYeW5S3L66h78UWaZ2/odd7t70X3/TyDLSE46eS7hmKzjfpnvlIT2s3NtW+S530y7lMXv6nJSzOu5f217/+dGr89KaO3Jz1F8l1hoXxX2JXeFUYikUgkEolEIpFIJBKJRCKRSCQSiUQikUgkEolEIpFIJBKJRCKRSCQSiUQikUgkEolEIpH+fv0HoQR5nz1pI+QAAAAASUVORK5CYII=;" vertex="1" parent="1">
          <mxGeometry x="105.74000000000001" y="280" width="69.26" height="25" as="geometry" />
        </mxCell>
        <mxCell id="4T3bCirenjGZTBYiXq4K-22" value="" style="image;aspect=fixed;perimeter=ellipsePerimeter;html=1;align=center;shadow=0;dashed=0;spacingTop=3;image=img/lib/active_directory/web_server.svg;" vertex="1" parent="1">
          <mxGeometry x="181" y="100" width="40" height="50" as="geometry" />
        </mxCell>
        <mxCell id="4T3bCirenjGZTBYiXq4K-23" value="" style="shape=image;verticalLabelPosition=bottom;labelBackgroundColor=default;verticalAlign=top;aspect=fixed;imageAspect=0;image=data:image/png,iVBORw0KGgoAAAANSUhEUgAAASsAAACoCAMAAACPKThEAAAAYFBMVEX///8A2P8J2f4A1v8A2v71/v+28f+b7P+x8P8g2/74/v/8///f+f9o4/7X9//S9v/C8//s/P/l+v905f9Q4P+g7P/K9f+98v9W4f6W6/+H6P965v+p7v/b+P883v5S4P9TimHWAAANIUlEQVR4nO1da3uqvBIVIgIKCgLKxdL//y+PmSEhlwmlPm/dPSXrw94KCMliZjI36G7n4eHh4eHh4eHh4eHh4eHh4eHh4eHh4eHh4eHh4eHh4eHh4eHh4eHh4eHh4fFT+Eji+HGLvj4wS7quiy8/P6LfiiZkiLS7Lh13GQLGgoD/07xrbL8L0cjnP4F93lzHHVL1uPr0zjH+EpzCQAMbSQ0rVKY4xncP9BegBYKCNEX94l9ay3CVtdjH0roOQBH7fzHaf4obkJBwjbomkpGHftADt7OgKo7yO1u0bX8RI5+11Lqyn1hpj/Mhx0+GTMVS3g58S/Xekf5zZHzSqjZFwyRbkr/zJGu9as255jKFzy2g43MutU0ZrotCDxP8Nuoad35uZYd3jfJ3oH7y8GlujJGegX9GpWSWPxVuTwlJHnZZiEZrt8uBqjCzDhmem9N3jPDXoOSqRHifpxZWuk+givQ7wbpvymBdmGWuJvTS9URdNAEGa1New53PmN7VCF+rI3eDRG4qhoZFzrHvri2HJo6cq+LHBvYLwR3w0LFvQLnKHbuDrTkNC1wJg8UcnsHmuHLr4GO27aTBOvE99x8d3C+D07ZfwFnogEuSku3ZK55lYETquBTaB5rIbFd0g+sgD50pJlLOVc0/gTca2s7oh+OXfxcRrUl5MEcwPGljh4y7wiGRfxikB4Vu6OTOR7R9fyx4Zn8UXGrMGOYDbJSMEs8sIEzTsL2Ue0VMGZIMirBhBsswWfXanMzeQloPBzIG/eUAVVJoiLILGKugHtM0fCJNxxo2tJdMNU90ModAaANOd/6PZ/LzgHQBH/bp49DlY8CY9EFN8F1j3t0zTm3mSObY2BNkcb5c8cAvBuTbH1W6QJJFWTocIPe8Kn3l4OrJVvr2ZfTcd1236g6TAJeApgnr9vQu/s+6tOgeNVnB86cTWe+uXXPL68gxfYnbEFJMhJ/50HdxA4i7fsg/yePSfoXR4VwFWpB9OvfIVtC+NuyXcXheNohf+OF5UOWJq1bbx/CRSHde4dC4b0NN1Fi43C2ym7hKjI1RC2S9O6B8katE608Y+8MHVwjuQtBC2onq6fGcDKmqjvXyhEmueGjAt7/ZQ3uJqyYUTIGUCMtzU78Y4PzIlW8Uv4RTpEu5GQdXO/BI3hxRvsBVIpSPBdUN7N0H7uBWSXw2Ae77lBfkGsniey7Pk7oXFxdXdxCs9/ZxfZurqa78lIucz/A4V+m5ntFVGw4e1TC8UDOVf04H2S3SujxxF1c74MqVof4ZfJereGIqbCb3phXyElGxzIwT/A5+xPVxMjXXXgiXI6Hs5KrmZJkG6+NR1ePY9u4gKCq6vB7rdni49Te69/yYvCvm2fBPCldr3JWp5yWcR38QWTse3Ggp9Ovloq5yiTDv4LTLgPEUT6JFO+JOrirO1V7b1MwLjmPJKNp5SWIprcE35ZigmmaA5QMRYT1/S/5URTStYOpFThMFkF6Y73PZQxdp2M/e9TiZsz7Qc1enqemBXNWWuVKHfA8DLQiqLdk6j4F6SBjsbQfv+jQx2mnQvvTaD1eswCegin3qwUWFqldrhl2pTciJgnmvIW42DM1kA6kBrNbBism7jhIQBMaK0bFZMKapWzFpIoICeUwwcn37NlcY0JiSC4X6BKoRkoFeEeO52xG09Hankqn4A8IRX2vbW6SnOpyv2a1B4dCvgi7ZMxptDofH08fDSevCF0+E7/Ou6YaUSS/uuzrY6Uk8CTDVIFbiwokWBkojVjJxpF1UhGYQIk3j4qqAachFCYnoZTj+McIGxX43nAaWS8m/4RHa7UmQqlZkJjM4LV/by48sy2Ju2/trxmGPSEVJJjh3c+uCbPA7BgbEFHrBHuHbF8wwYwgXVyOokJh5A/PWbuPAJ6be/qdWpJp9AlFUI7IMBUd1jZ9u3Eznep9h0IyPgkg4SWKinZFdYOL8R3EktaQ3Zj8lwMHVANMSVqNkFlUTWcrMMjYaK31quLOWLO64hZnX5/VcBcFUx7JQGcKSBgbk7Z1YpF3IkVJOmqtKj525qgSWrHLRU/096yww93ksEApYNuZiHL+Gq4VUZoZrvtC0IzO5krvQIXXEQQXVk2XnZHZRkuo5mSsz3AfE5bk5cPTp4IkCbUXjYmVVWlSs5spVY+aABwLkfb3aXEmdA0Vz5J3ILkHgqs5ntKOV6+sCmpTxq8U9VDnOQJGXkq3f48oROqzniiePXeMn6/Z71WsCSBdHTgvsDpGR5hZ/cfIaV7GukQRWc1W626wNHTzZiWMhARFSR6tyQt0NZ21iXgXKwCE/Z75D9+QuzZBXfXPBAWlc8WUxWGzdWW/bw8CVnELbPq9ho0mVXBJ64/vXF6C4eh43KHatALeHOOEx0Ne5YzdLKDhaGlf8Si7FQaznKnZl5i2fITF9hsQ8kjLu/IkL2xk1dBBml+iK+uBTaGMbnW6sC6G//P+A5SeNqyPsXGRgPVewhlFaKH1ROSyjFCFHMIgtRE6hoVM6us8AblVg2LQuME2awuxsgR5T/BKO9bjne9Nyr3BV0oupim/kr7DzzCbLjnHOeowjpAiM/ick5S1LHDva2nSuTiAXe51RI6419FUsuhekKkeiy4S78alCDzgeyyHxd3J92NpvqiEVOxdq7CytKzyxdD5TuoanJpwbwxctYGHXxRLlijkwKifSRLLAHM7PyBV2bFiJoRx1BwRLDiUTaTeWypgB6PxEOdQHdZYPpVgw/fbcdq7BXg2niMZxnqcRvxxHNQUG9mq5zel7OeQpP07l+jI917cr8pCxMFeWbCjlXDG3xZQoNqrQ5yB9G5OrCIRBy4fCOvhVXZUKgyItXfhfroN4SZyWUqaSOeRKXfEAJ82uQPqPa9lRfAAcpxjRUfy24sEE7r+qrdevVzB0DwKTiR/zrxDiedxU2HijNuFs6MBEDbgVoLW49dqLOqGj7GXHzrWlhXDMcr3/SFqjn/LbBa6i5oX1dWAIRaIRxQcSIHYYtN1E4Hf/FFYtd3Fsc3W1tBCyL8s9Rtxy2y6wxhXGg0tK+EIt9SFroOOjvCsNxalm3nVc1Jo0uFi3aj6Pu3ubyMl0phaeYZaLnRER6RFoXP2HeQZ9tGKWWnfQRaktm9B4BJ90rtEvdTRQ+StIyag3pXZFhDPAXpnCq3NF56+U76/1fhzjUPGgwuFxAUMEqVPyxQudsOen7NCr8eLCm0IAFFcgR6r1QcGyRKJQDmmJvM3JKJtRedGbmRd95b0S91rpDuKVwHpoEs1NVyB7iuZXXqDN61/qKeqxEjFvGKiK/fP+zPSBfxXqCZra4GrKt6tiflDz7fevxdeFslFfJSM1kveqVUPP+wWf6Pshb2u6p21Y8ZAJnUMGJ1zVQhQJVZsPXFOViAySXKliurM0MMRzquOwVtztrIXij2AcxRdOGX//+ePISq2vAr6uaFULI83VzdTC04gykfZFdr1ekmoqp850QjwYyBdqXJ5HpHuDK1kfTIf40QyYgVV6LfEa1aMbySLNMtBp78fVrbWgrfnj4E7eG1jsVVNtB4gA5BtgLPB5VD0AkWcYq34AQd+XFlc8PyBOI+vOswgNopr6iipehMeQ3eOqDp3NtIHs2T6c4dKBUglbREhzhaGOGintEq2fgU/JCNDvSuE4BJfO1MEdtguoJ9GWquN8ie+3yYH7OX89lecbPgvQjuPIm4bHsc6xef+SqSrOI+1VzVNAM1F3OGDRXI+iUpQGGEHaWDoeDfP++jadfG8eVdSTTPH/cp2SMhUn+H7bKCfGlEYYsBLcFVTsw5PJq5q2o2MURZRlwyyCsSd7DPwutX1Cr69RMozpWA9JOZ/DPqpMnmdJn2e52zuL6rknf7zQW895MR2Oq561u5JdECAW23q3GqkgmD8VwgvW1nLgtvcuC8c7UiAfFaLWQenQXjRcb1f5u3BJRyoJwr4lW7vhOfpNvXMAOhAIq4MPo+ZCHSn3PKSXt7+Lg+4yzMBnU/uLowFth6L34mNA/59wv/fjPveL0km4cWtcNU6uRB+8qx4PXG3qtZkLXInWBVfc5HVQwRW5cvERugzZXwWkC+hdF2GuHIoWOJpP/yzc/WuKbSdD5O35oleqE48D66MhdimMRA7xtrkYx/GahSOW8sNoN73F1q5zQi/kO0b4e1BTTkGBugfd5Chgdv2duwzvfrT7H4N4x280tTxMLijm5Nio58z0x+K2gUxr4+BoJosuicimp30G1WrlNsd/H6OWyIsarCYz9a2+p+nZRdZLchKtsW0ruGF0zGWmvOdTZcLszxO9tqyFZ2uxi2hbb1UDoFvA1L+hkFrLXikei2UsTFOsDm4qGJxgVFPVR6EV3Iy/zcEcIfXfxkn7my+pM24ptOM25i9IJOJvCYXLL9PJenybDJubAjeI7NDEj2KFD1AWj75LtmfVPTw8PDw8PDw8PDw8PDw8PDw8PDw8PDw8PDw8PDw8PDw8PDw8PDw8PDw8PDws/A8oKYgPuz+HqwAAAABJRU5ErkJggg==;" vertex="1" parent="1">
          <mxGeometry x="114.43" y="111" width="49.83" height="28" as="geometry" />
        </mxCell>
        <mxCell id="4T3bCirenjGZTBYiXq4K-26" value="" style="shape=image;verticalLabelPosition=bottom;labelBackgroundColor=default;verticalAlign=top;aspect=fixed;imageAspect=0;image=data:image/png,iVBORw0KGgoAAAANSUhEUgAAANMAAADuCAMAAACUPcKYAAAAe1BMVEX///9TnkNKmjhQnUD9/vytz6ZXoka92bhqqV5OnD1MmzpHmTRZoklQnT9GmTPy+PFfpVDG3sH4+/fx+PDq8+jR5M1lqFeny6CFuXvb6tiSwIni7t96s26Yw5C0067Z6dZzr2efx5fL4ceJu3/A2rt3sWt/tXRrrF2dx5XaCgZ+AAAO9ElEQVR4nO1d65KqvBKVxFsSAohcVEQBHZ33f8KDOt8eDUlDEBOm6qwfU3vXOJol3Z2+JT2ZfB7rKt1cXSdINmnsG/i8zyM+zRnl2HEczCmbn2LbC3ob2wujzjMIuhxtL+otRDkhjghCd5HthfXG9BDQBqMbqDub2l5cP1RLhKWUas1Cycr28noguigZPVhdMttL1IT/7TUVSVArL1/bXqYGposAtTC6AbmHP6NWxy8Gid2TALLib+xW0Y62id0vOD2NX62mqSu33ypQNw1tLxrGKgCtnVQAUXC2vWwA2b6jIgmsWLG1vXQF1jkDFIlSrv4lZ6N0l6YHF7Df1MnTPSSWtbs0OrWKC0DsOLlZt2mVAKwwWla2SbwgOyG1ZP3uQuEMMoocbcajVmHpAIqE+OJXqqKdB6gVcb5HIoALFxApQvPXZW4hIb25S5ZYPOO49CAlkXjfZ2gPw+xq212KdgxQJLSUri9MHUit2MmmXQ9BR6iWI5V2gDalJpxaSy+trpAikRz6uuMCtOuWwuDtBVB2zC4tdjkEYyzOLGSX/JxD9tut2qO9dQnFwoTvzArg9IABRaJ81u1tIuhRO5SYzC7FV2AthGrYrQpSSYclpux6dgJ2JE6/tBycUJUDvAN7GxNhsF9CmwtKzrryEn1LcrX/QHH5cbVaJFT9kCjvtbGAFtShwWJwFs8AM0IY9c6XrBLArn80u+RDGSHsvaPQ4YwBEl2bnc+kN+GPpe6bEuLvEKRW7BPZpVXCgI8k3+9/kccC8IcdFAztLmWQGnMyjMWdnsHgvtXd0sL6G3CEhkwk+OkcUivYLdaBsjT2kIm5MqLogwwM7mkwTNUAKI3dqrO7oS0S6HjVYfD7QhFtoIyQp+cIdcN0gcHd6vKeAPopYL/ryO1DGbmwhAIZ4r3jLp2h7Z06H8ycbjewXV/0VKsjlNGvQ7bPZkKqJeBYYtTLXYqgfR2j/cdD6xBMwNfGSfc7hbPAyNWOKPogggslmlWDFbShU1qaygBnX2BCVCO7lO0BBeVsYzKlCBYeMfvq5pSB6ZyeyvkGpqAWdGqyqB0hQDP7G9E3AForKNv7AzA9SgzkBqQ4fkHODCqgrR8ujVkseU0X0O7P1UkDsNyA2accoW7wUwRF2Y7cFINlIcqttwZFG8Cu12rVzB1Ee+AvPhBR9EEMRT2Y7YU9JoYyQnQ0rXYLKDol6GWbWaj9RYyuI2qJXJdA8QHTJ/mr1JQ+GlH0QXZSRwuY/rNjW1f1Kq7v/X4elTq4x85PuBB+KXQJe8UoW8HDA1cJICkeUjVTJCPriMLy4pVQJ23ZvZznyyWPklH3Cm4VQTh2b+7bTOZ1EGK1SaELFFV/lNau1LX5G/MRRR/IY3F+nU6ypjbVEcWYxe4X0iiEZZODKHqEfv+dQ0rHZnCPFpNcYOqNxhHqhrNYNSC7SfHKk4zWfqswPb0+FVxMgldKG9tL1EckCF8wEYQxtb1CfYRLQaVETh27asaE6f85fRDhOtrG1Xl1RxVnUdR3BxkFp6xKN8vApegZZB5c97tZpe+S2eYUbmd75DFKsMQjw5wi5rFC82Ty4Jy2q19ULYmYMM4DD2qEfYAj5l4W3ZM6A3OafrNn+ZlDnm+UJggok70+MoLmp7ij0zkwp+OrA0yWyldmuaN5MoqgopsrPTCn8ysnPFe87tb0p38yiiv60z/LaSE49QpOVadjoBLgLsUuK5yA7FUrqNuaprfAaV30fEgPYK/NBTXPKUv0zoE2wfKRcYqS7od1laR2o+K0vr5PqSZVjonT5l3B+1kWFH0b5nTwBqHkYBcw6WY5RcqnhDmhjCFKKSH1j9p3Rah2bJWk6EVdpjTL6STlhAnlwdcuPcfHLKvjpvpHdoxXs/xydYjK3QCkzygnSTr05vC4p8NWHkyEUVUWVEoLX5W+n1FOefMxYXRdwN7OdPstbVxhygdlkpPvNL5w7nRpCI5yydl4Xqg0yiSnc8MnIknHHO/WleTBVfU9k5x24rpw0jl49YuG/FGVi2SQU5iIosc1env8RBQ/ZXBmkFPW+YuWImtoo6cQXIOcYlF6iF4LVqOIpFqbQU7imoAdRoqwEKSPXKxzEuvE2iWTStiycWCd03ez1qWHhpHh8t3aIic9E3FDKbyDYof6S89pEgsbHJIf7zPISfyW+V6Xky8IH5VnWyzaCAeK6+TYvD4oKg/hDXJaiJGG4muG3t7Dz/DkWVmbe65Dte+Pyd1nKP7cpm9Uv7t2W62//gdftWWb9GGXzSCIervj4G0/RmMNWbhKvSRfRYP2dZvkVMmzRpgivtwtjtFQD8wkpzAAmnERc5entGb2fr+W0RxLChc0OKGUzJNbsX37jjQa5SRJsjSBOUEMYXe5KQ9xr6dmNmd5AK4yEKlhcuuXcK8b7RYJw/nyi24J4P7UPHJJq+7SaJiT37P6xKnHl7XNHyOnSRb0rj/VttG5HDrQMl4nfK/0SZizWbXtY+brudFXd0MhpUWvLfloG70EKXQaugOw7AyaZU63y1zeZOUVQKLdTh/LJL4oi2XdQIDYyxKnyeSYBwyobbYCq2vv1jhNJuvVye3c7CaBsvXDIqcaflwWcw/1fF6e/Xy5YgHRcXYKPI8hWfsoDGQ9xwIh3K7S0zKY37o0pb2xUuBEulGNhNMPs3UWL2b5pghqh4FRwtu4yU8pjIrTL/zsuCg3y4BTqPHDwYEs7zRSTg+E6+053SRUbfSlGfNRc3rAzxa7QGH0iaxF5w9wuuHWiS5tOJXl3P8Ipxr+Qna9EZOY87/DqUba1CtZHcEYp2lc/Z55qHom8cSiWq1QJ3uc/OL50AMLet7k0mjvwZKuI1Oc0tfgFmnXcn8gnOCsd6imK2GKk1DhU7U2tKLRZOGOhpPCU2tH3Cg22uMktiN6PW8EyESFYk1zY0yfxNaGnkeZG5zm9p6TmCmX2eAuEGXPpj41eoXcflvUSnyfqz1bHonN8ooelDaIjSMyA2qKU9jokrz24iQuV9a0ZMw3uoikWJ8HtRVNuexdjHFq1j0VnWogLqLDRyVOljFOx0Y5gyy1zYT49vJeTWOcJB0fdK/ZxVI16sHSHkBz8ZPkiiGqN9pp0cwjEdkbmOMk3r5xA9e4VD07Nc8o46WsyGswzs1l3RF0vusUSh13shFtTFrcMNoXJj3zQ1HQ0nAUxWUivQ5MFjyZ5aRsY8GUsWCfHyqxMWedxff8nqeofigcYZOcpkvgPsnbVRGMeR51XTcpgvpn/Z/baTx1Hpba75mvvYAuRZl/naGtL3QUW4HZXNj5vZL7K4jq4Lvh/N5soLOsDuQvms5ZpkORUhUJLXCqA9636u0/wFD4ZT63vNKcTy0DmUOXSFjIl0cX7RHVr8BIvHXYOqda/vpeXfJYktuyJjt1jajUvTTnHyhvdXtt1Wqi0u1hLDDiu/YTvfbqT/7i6mk9LEy9+axLaGK1phbNCt6tOwcTRJO8Y4HHdp0wWuWFi+R3oD3Y1HQYCTaz7Vh7fKXwt+dyUyS3nvlbG8t/qP9F+DwpTmmVaVVBxsDpsRA/2lbnxWxWfpdlXpZlOjssqm3k6x8IaOOkeZbsszXqjmiceRXuUtU8yDgKTpmYdZsIV0jrPagxcIqEM+T4OjmJh2ADjdkg9jmFpTj7j2+auUXMut+4bJ3TuelK0tnk2IzaCCk7phYtc5JOfPOO8tNkqOO8RqucIuno23t1VDyX/vhNt5vmLXJSzbq6lwkyeRzKWYeJAPY4KSe+0bsxkCa2nft06TYfRUi1Kq+BGRrq0bfocfvBWnk+s3Vmn9iu0q9oq4v1t3LiGw5+hOusvn6NgbMVfWFrwIUBRlNoFuPvVWmpOl9KGBA7ix1OfTs7dBAXQMCMng515EASGCnnNTYmqHz+lvoMGl0uXHyZQvMaqWIOb+N6PaR9mYIeQnC0c+PW1RX4aul466bEqm6KGgjgxDeHzhvlqTU42bCpVlOJvM4/OWxkW0Az4urtVFbK2e7BrwHtni7fDuNr0/j07qbsAHhGK0ZfKvt8hsZbO5Rd83MdXftRlUon0H3uknp49C08srPlbzFFhM9vdUspdZ276LRQycci/fddt43slDu7nUD2nxnLuN1A0oPRpt0ySUb1dAP7yMw//1vWKfH7oR1Hdq561SF4395kEAdgBunNze6swuA0UxXAO5F7IgaNFqFadwtFO2hqvPQDtK8Da0V2grQAU5kjAOJ4gabGNz+BDO1D+KAj5LBrj9nlU3B4uAhvaMk7J1AFhM5n/XwWDbWCb03XxxEaXX4bbNx/0mC0A2aIPz+lYYMMf0cgR4h1GruhRu0EtrLiwzpF4YGAjhB8m0QnxBv57du/HxIMOqCxSqAuJULyQbbBLA+U04Aw5YMOSM9AR4iTDo5QR0SHL6nfSpjboTDeHetSOUX29v2h5aDu13SbFvR+3v5GDd/nTyG+ablgXfMzFqBTRuddLj/XRLT6vlyD+zWMQfK1m+mN02pFXED7If/g7PLHbYzh4GHF+gRN8MLe8lPB2ccQph5ov5MRzS7viNoNgxQJp39nUuwPVHOYH7A/crlKdTfgKAcdIesjl7MLQiTXsU/TQ9DiCNkdufyTn0GqC3clgDNCBOV2FWmd/+cDYHbtNus+UpbG7m/j7a2OXJ4ed8/GGHu7dr1el1Ago6w8GEI2K5h4q7zbUrlvc4SUFSITiA4XIlGKFoN1BB0hQj7nCHVA5Kqi7NpDUwlgBhZRWiqun8cayO4oBLA1o98jIzQsIqDAipHkWOQKLo3R0u6O9MAZKIRjsdaVQTVmh3cZ8GkEYQnk6Sl6CuXWOWi/rTtCz9hegOiH/bfSEGptuHdujUHsfgGFC5zcLSAcyBJe2rTfUvgpkB+hbj7bSKak/dLW6IQ0iWyjrkNgCtUfMUsq2/ZbhZ4DjSmejZXR5JZXAPPCUhC1vzESRCeiU7dyOC3+QEaoAndVASgBWhtGhHAGVvie8JcyQtGuy6Oq/aZR2m8V4qSNVW2/R+QIdcMBFkCqkYkZDyIg8CN6GbMRQRWgYzROR6gTprLjxnWg+Pcy+s9Y5/z1WXHk9GxtGBGiNPm5hh0Tymix+POMbgi3h7xIkqTYac/X6YX/AXYKAKnUyWPGAAAAAElFTkSuQmCC;" vertex="1" parent="1">
          <mxGeometry x="236" y="111" width="24.82" height="28" as="geometry" />
        </mxCell>
        <mxCell id="4T3bCirenjGZTBYiXq4K-27" value="&lt;font style=&quot;font-size: 11px;&quot;&gt;RAG GenAI Chatbot&lt;/font&gt;" style="text;html=1;align=center;verticalAlign=middle;resizable=0;points=[];autosize=1;strokeColor=none;fillColor=none;" vertex="1" parent="1">
          <mxGeometry x="230" y="190" width="120" height="30" as="geometry" />
        </mxCell>
        <mxCell id="4T3bCirenjGZTBYiXq4K-29" value="" style="shape=image;verticalLabelPosition=bottom;labelBackgroundColor=default;verticalAlign=top;aspect=fixed;imageAspect=0;image=data:image/png,iVBORw0KGgoAAAANSUhEUgAAAW0AAACKCAMAAABW6eueAAABL1BMVEX///8AAAD/3i0yfv//ZEa8vLz/Yzn/4izKysr/nzwjf///X0ejc7leXl7Z2dmPj48aGhoRERFTU1O1tbX/2wCRkZGYmJjo6Oj29vbm5uYadf8jeP8AcP//ZEL/3R4re/9DQ0P/V0j/5Sv/5nWCgoJEREQrKytlZWXS3//p7///WTZLiv//Yi3/++ojIyPFxcU1NTWsrKz/7Jn/9tK90P+uxv+jv///76v/gWz/4UpwcHCgoKDe5/99fX3/bUX/6YaSs///7+3/2tX/ycL/vbP/sqr/zKT/76H/8rtelP//VzyCqf//m4z/bVLnt8NfeuruZmH/+Nqwca3kaXHLbZH/5GaEd9K+b5/Va4ZreeOYdMPF1f//rDn/uDf/yTP/lD7/0jBwnv//f1ergcD/kX/lw8w+AAAH/UlEQVR4nO2c/WPSRhyHAxSHdUCBFEIpKV15r0Lpq1C1teq0s07dVvem07r9/3/DAsldLuFeIEnXl32en3o5ekmeHN987y5E0wAAAAAAAAAAAAAAAAAAAAAAAAAAAAAAAAAAAAAAAAAA4GbSae/u7e/v7+22O9z6pyfPnr/4/uXBq50H//GR3Tba+6crKysVG+uv0+O2p/7kxcPumB/umqap6/pwe+eKjvTG035tiV5LsKxZyl8T4Sdnlubqwph7d7+JT7CUb0D4/OwurnhNU+MriT2r/tmbrm3aY3siPH5w1Qd/w9hNrHBV21QWf1xgXHttj4Wb8D07nU2Z68Ti23fdBQ8+25bv+PurPombwv4qP4YQ2T/dry4obMfj+vZVn8bN4FTasROJn+8s+OHYjpvDqz6RG0AnIe/Yb9/4O7bAthW9kYAr6FQUsu9wZPNtW9EEwVtKR5D2yWWLbEO3FGNNKjuRqHJlC23HdQQTMZty2Yvv+LLFtuPxqz6l68vrilz2L9PZiMq2eR7ieIzSBCOyE7xOtFflsj/cF8iW9W39VfADKsQmZKM7xWuEImaLgrbcdlwPfkBJ2/ZydKd4fThWxJFfRXFEbtvcCHxEt9h2Rx5HEglhHJHbDpEG3mLbqq4tvEWqbAe/Ud5i2yG6ttx28KT79treU3TtbyVdW2HbDDodeHttBx3YzGA7bgY8pltrW3WPfCsLJCrbs9wnk/X8Vm8rne2z2xjbhVGtt9U6ZEY6g+KYZWuLUWzkenlaURqMGs1erVXMsDvILE8+Pt5WKuabzXzRoDXjYtbz6TGpYqvWazZGh1M1YQkVSJR9WxVKjMcxF7cru7aTtLZOa/P2hrLWt/9wNmfyblO5geZvzNpS9+zJoJ/PewathzF+O1FwoQgkv8kCicp2XLGwUIh5IX2J2i4ylVvkv9J2uZSJsbbZ6zb+dEnzNjYg/zdmZPVz9tOu7tKSr51Ipw/kcSSxuBDKtnw8mY35SXkEFTOeShIyiO0ca7sx1VbZa7swYCv7Wo4t0itZnmomFqFuI0z+N4NtWQ44mD6zWIkVdLjlrUx6bNNvPLONp4nY9tQ1fDt3mtY4zeT9xx2cR4q1yN/D2TYlT/S43Sg/oiG0wQry0/TYprAXrlnP0uqaJmuMq3SZXox+n/wdi+5e+afc9uIH6U1SbVsyEUgMjyZ9sMWemiuoWNaMFI0SJZ/txiCVKoxvn2TDpIsaW2zJbWzLilMZN+I0rF1laFv2MTkF+95oOMGmrkXFriIl+SOk7ZfCPZOYPPLKz3oEObGXOEl6bZOvP+3aTtgnMdmOxqQxJzbXnGLNLpKrPLmQGfsW+djbbCOcYoZwCaDatjgFJLdIUi4zEoigglNnOOXDScnrfozTmVuk3GcvFmnMCQgpb7HkLVr7KmdoPm5XLQV0O83V2e7Zp+Im2Yz9JPP3hDTT8UmB5hH0YqT8bQ2YxnKc/TBFXnAuRG1bFUnC2hZHEslZEkE1uqHOsX1Ia1M+gZo2sjeMmMZoauGTn+Mfh1FOkgw+Otuqu6TK9keFbeFTmCQj4WazfkEk7HhsF2jtwN/ZyXiwxmtMZdtIZtPNGEN0ttshbX8KmpNM90eGOW07I870VANLvMbktvvkLnoZtjshbf+lGN0Ip6WitO1kxi23gT7T+ly2mbmWS7CthbO9LnUtG7lfz77t6di1bOS2T+VPpClsP/lOoVu430uI2023gYBxm04GpIvJDD3GCG3vS5MS1YTrZ0XYPhLv2DkvN2tzHtnhCVLYjiwnIa6dLhB5vq2YKFHZDnyT1DTntu8Oixllc9om+Xbf39aA15jYtjPS6ZGq6G3LH91R2A4ett2xpG/glucJUtgmY0n6eTLfV+Y1JradYfeiXcLoRvGAg2IN+LM8bEuf3yGBm1hwjBV5glS2yTyJs4n0dc88yey26detGb1t6cKk3Pa6Kv+T/oKSJFuNyYmSbCBI3HbnACfjywxZKLAjy+y2fXduMh8TpW1pViK3rcpI5OtkzFKVm3i1uIKUtt2lgnSLjgOdf5//LhkrlIzygC6ZRWpb9oSr1Pa64h6pesqVt3ZjcAUpbdOJ0+m25rHtW9vM5aK3LevcUtvhurbmrpS4ZPiC1LY5g0CyDDyHbcPbQr95CbYlkVtmWxm11Q+T+Nbcc76F23ls+5eUa3TYNM9Y0rPsXNeWLsG2ti/MuSW2lQmJZGRDMerM2blTqM5VcBdNPDOuea5trcysV/aYSv/0rfMRX5EsLrjfkcLURyNC+HSarG/Le/bMP7zpZ1uNWqNVTDHbSqkJ7ixoxt5QZgslzY9RqKdrtbzvGSd/Y327TIp2qU+/CuXDUb6RryfdOvbIokA4Eyi2rYwj+FGZEFFeIrQdNh/5f7PL1y2yvX5XHrR18QoZsNjj6hbYVsrGexwUcHs33/b6R4VsvBNGySPOT925ttc/KWQjZs+AMf2CEo7te0++yJ/ZHiIbmY2pl+9M215XPdWKkD0znQuvb5/tavfrF2kU0c/Rsefh0cVqRWC72n14or0/101RDNGHeCXgvHSOK/Tli67tard79nRS/2Db5Ag3df0Ir4AJRPt4c3WlUllbs2xXq5bo7puzE6Z+Z3uo66ZpOzfHLxeNH6Fbh8Bo7x1fnG7+/fXhP2fPT55Of2DnYHvjfDgcnm8cHeC9uQAAAAAAAAAAAAAAAAAAAAAAAAAAAAAAAAAAAAAAAAAAAAC4RP4FcLfbVN5KuccAAAAASUVORK5CYII=;" vertex="1" parent="1">
          <mxGeometry x="260.82" y="290" width="72.73" height="27.5" as="geometry" />
        </mxCell>
        <mxCell id="4T3bCirenjGZTBYiXq4K-31" value="" style="shape=image;verticalLabelPosition=bottom;labelBackgroundColor=default;verticalAlign=top;aspect=fixed;imageAspect=0;image=data:image/png,iVBORw0KGgoAAAANSUhEUgAAAOEAAADhCAMAAAAJbSJIAAABF1BMVEUZT4L/////wQ1WrOD/xAAASYWhk1munF8ASoUeUYOflWoQTIHz9/pjtOQVTYEARHwAQnuQhlSGgVlgfqFdsuU5dKNRgKkAR4YAPXgAR30AQ3xLqN//wwAARYcORXonWYnR2uSywdFAaJJvi6re5ex6k7BRdJqXq8Hc7fju8vbl6/DH0t2ru8y7yNZjgqQ2YI00bZ3G4vSYzO6v1O97vOaj0O1Vjbeis8dkrNpWmcdBhLWDmrWqk0zzuxhJcJiQuddXoNB5gXiYkm/bryXKpTR1d2Szl0dmb2sxWHvWqy26nD+PhFk/XXhBYXJaam18e2DdtUlemcPBoDkAQYrPpzNkbmxBXncoVH3qth51eGF6eWKrlEjQ5/ZFnI36AAAZfUlEQVR4nO1dC3fTxhKWEofalbMS5KVNDLLlF3ZiO00CIZi44YbSlAK9cGlJW/7/77h6rmZ2R5YlK9Dk3uk5PUSWVvvtzM5jdzWj6TdO9UFzdDrttse9mTtxNGfiznrjdnd6OmoO6jf/eu0G264P9/vt3oTblmlybhiMMS34jzHD4Nw0LZtPet3+/vAmgd4Uws6ovzHhlgeMafOIeVAtPtno73duqCc3gXDQGte8bns8mwsOwjS4yWvt1uAGelM2wnqzP7FNvjA4AJNxy3b7zbIltlSEg1a7ZvP84BIyuO2UzMoSEe63a9ZS8CJecqvWbpbXrbIQdqasDHgCpNYvS/OUgrB+OltOOCmQ9uyglClZAsJB37GMUuGFZFhOv4QZuTTCYdcwy2VfQsw0pktjXBJhc2zzG4IXErfHS2qdpRA2N3LgY3P+ysC4lNJZAuGgy3Pgs5wJ+HPiWDkw8u4SsloYYb1vLq4+mTlp6eNEHRljveXmmL7c7H91hAc1c+H+abzW8h7ZAAg3vL9HtRxT2Aya+HoIm26qkBlqt61QyGSEer1rqYORZneYNSumcgohnJp0P5hh2htTQ+7aKHxKQeixcVcaKDbdsM2UgMvg06+EsFmjZxDj3HdDJvhHXhvqqQj1oYNZzlx9cOqmzHBmOgXYmBthfWqTr/c8kKmv1ce4y7wnXC8KoV7v4fvNtnex001Rtcye5vbk8iLcn5AaxrDdVvDuAzsNII1QgWgHMl1vuTY1EzylnJeNORH2qbH1vOTefvh7R+KgC4acRqjXXfQMMyKp3qe9ecPKaThyIRz0KICcJ07HDPWWu/DpFIS6jiHyXny9MzYJe8KsXi77nwdh0yFeaFjAcTxA6p8JJTMf4dBB42a1kjeOqaiF51I4ORAeEELD7B542wDreRN3JBWh3kRzm2lAtJs9QrEx8+AmELZV86yZzgjegvWolXSj/viH4ydbAOHW0fEPXxJhw7znbdjoyCF0m4VuKQXhgNChnOFJv4/0aKD3fWxHJ6t7Hq1uJcwwtoJLeydHx48DhnVR6/Y+arfP1NlhThadjAsi7BBT0B4P8U0ulCc20fXHxyfrPraANhHCzfCiB3T15MkXHfsJhosbHo6xDQqG11kwploMYVNTJjzfHUk3IVFj/MejzRjcHIQRyqMf0QuAsglpZCkjbNQW0zcLIdxXZjuz2rJzUUcakT+FGOYjDOgphMgcpfW2YqiYJMxLIGwpMmLwlnJXH04l5q7LEDIQriMZt07VXqhRi632ohDCU0XHmBN1DtTR+x89kxFkIVx99giNoep/DmeKNjfVgSiAsK+0a3WJ26ZwHIxtFUEWws1tKKdkUK/4jGwBFy4T4aksopSEyiysqSzMRLj6rJbBRE8hGLLGszMhZiE8kDlo9IbUfWgW8qdq/7MRrj6Fo0QL4LAnQ7Sy3JsMhCPVzndb+ypGpEiZo6iZhRCuo0YmxEzcb7UVH263tQzCfdXSatw0Te62T0cQJ2I1ycIFEGImIps4HJ12Xf/NhCNuy4Y5B8ImATAaYW5atjnpTfut5nCAXRKahYsgREz0HZvBsNnqTzcmpm3NWbucbxfnIexk7cH7m/CmbTouitP5B6r3iyBcPUPt9FzHa93M3C5nxjzvZg7CurPYjpJ/tAL9fXbxbH1906OFEXr3rq+vP7s4Q1CCwxuLkOHMccPnIOwV3XN5FJDhHG5tPw/p7Ozi4tlh0l229ezi4uws/HF7e+Y60TMF38jddBjpCKdEPJiPWHCEJjg943cfRR4BnuD34P/LvsqknJAMhK2lAX5VSjeLaQibN7stWD6ZaQo1BeHAWVpwvjJJy16ZCHvSGmbNtrLOb31NYpxbdg13KE3b0AhP8ST0hHw46m9ovt0tQS0sQb4JNm3bGfc9l0rymVPiDBJhB28JWfGeT7150HVr/JvgDLBZhjObtoR9x+qeWaThJxHOkF3ieHFT7+yfdjdcx1P47KsIrveWR4+0ibsxPZAPMG6gyWQQzjqNEEVCKc/VTzyT/XzrsPboZkGyR7XZ1vMPzy5OKFbUJ4gXJrXBSCDsoEiaGeSq3dFe6G1J6yuR9BZDzQIPELmA7HB9NfT+9o6obkius03IKYFQ2kUg7cyRWCdch3fXtg8dnzTD91gYIAoQIM+Ff8RqwbNb2zDWZyJO2XtCdWQfT0UCjnoJLbgkWgbRcbIQCp1ltuX725vrq57PeXb29PlhRJOJ49QY5rUHZ+K64e9bz59++HBx4Tvsvsd+CJu8EG/aO6a6grUNV703BSHeAZRXn0P6Aaz0wnVOfiYFTDEFf4GOG9vE78mggSYNEE3v/UB1xkVSvavIqYIQqydOTcIvACAKWqkFKDp6ItbiAIF5zBxw595jojcSS2ZZCEcorCf92TrszEUN9Mad1+/FEW7CFYPaBfyJUuvY8CsbAjJCvDQvWcKQTuArYVRukOsz+RGuPk+T/D3SZiCxY7X5CLG7tksN2ZO07RZqobsYQrj8zfAmDqVt6ruw0/JaMkY4wNt41CIW1DIeOaAvk7ndzoFwE7SqOeinvS9En9DUYhYOMjDCLloJomR0gAFegNE2ns/rdR6Eq8+hZFzg3yi5QnLKx+kIO2jFjtSjJ1JXjPSuLIFwzsCRUxHpU4aDYYSwjZbVKVsvyejqDGjSydxO50KIhH+GfyKtInJTsPBBhEPokLIaIQ4DqSPrUCUczu91HoTIrTHke4mO1WtQ+pB7ChGiWUjuPp5ILIRKb76tyMlDJP2SiiZ9cLSLi5gIENbhXrbqG+iqjCKXzZg/DfMhnKvBSH2KYlobqBCAcIpYSMQhdaUjcFPTyeh0LoRwIkZOLCQCIdpjgSdyEoR15Pv3iEaeyCzcBHFO1jTMhxA5bsrYkXYf7SzyxCYmCFFkv0tEhQMZ4OozML+zpmFOHsKJSDj0hLLZh54NOE4sEKI9TnIWHikIYZjDzpRuLIMQRVBK02Q0jGaiIfZqBEK0ik8F9o8VgEjRMHLTsDDCTTjehHgQm00o3E+8U4FwA/aWintlS4GtVoZTmh8htPnqFCctBlwx8g+dYYRDqIrMVl2hx+sqTeA0JH7HhBBm3g3UNHPWNxV6rHaxBTWJMAYxQnyiqWaoVFMJPKIRP8+5O/t+fLOmENVD5FV3JYTo14Krgd+acK9NjHD/du0WLkJmCyFs37btwmyKnZYQ4YAQ9FtPkV+jqXrmrlBkEgOEygdWd4KiWN9H2LmTAH2IwwjhgieDbh8ZTohQPQN8Z8g/wqlJJ9DvFvkn4jVZjxrV6trtpWoVzzhPn2o4rGJrVy+/v3d76fuXVztoB9vVtSH014zqdyuV200r3yE22kPtAAgp2/l3ZeW2U+XfkIvmgQZX2Ha+u/0APYjf7SSQeFeDXwVenX/r3pVC51fwS0cNhP785V1gocfEl4lcMheGz9V/3RGE/6omoFDUtPb9HUH4/ZpG0/8R3hb6P0LlfuEtLHyxstIo8FQD/rNQB4ohvPztQUj3YRsvoosPgAWtvIkv/l35+Ov9kF6DJhvRtfv34MUX0cVfPyWtfgQQr+OLsKnzX6OLv10ujXDlYTWkh6CtBl+LLoK+VN7uRBdfVF79J/znzudkCBqXO+FTa9VrAMCImvrPZeVF9K6dd0lHKq+ji2ufk4uNT1H71R2ixzkRVn6KjMtaMvKNj3ET1Z+Si79ENzJ+vlKJV5h3XokhqNyPn9pJ2FF5HblYxlVl5TpuQUuGoPJz7KCs/ZI09Vt0Z/U3qss5EX58GHUhGdjKX7FJZQmPKveido33lZXKA7ULjXdxX43fk6ZiAP4AVt5Hf+z8LW44F0vZ1V+Tpj5HFx++QlO2EMKVc9FaMrBXwtVLXiEA+Bxq/BKNC7sSD10KTwOMy3l8yNefBJW/Y4aKIai8EW608Yd4VdI65Unn1qVCTF9EPzc+JS0kPLqOL64Fb30b4X0Yy5bgsT8IbyoSAOOdf9t59Bdj5+LtiRddFU39Ok9IcyMUk06IqZgFATvii0JIf66gTsSylQgpmL5ISL0/f4/lIB6CFdDZtfvxU7FYrVFCmt/iCzEVKvAtiKJjHlXeoc41flmThuAaRG1Mi4cv7osRaOpE7/xciYYXPGW8ix4SbSdTYCmEiZiG81/MghD2g/Ch83hq1EIBawgxvQyGoPIC9FWLrIwAEAqpNwzxafCq9O5w8MIhFkqZFtL8CJNuvA9+FwIYIgp5JABUo9Gv3I/FNJStyju4fBKJqTLHhdRGYtpAm4KRwWr8Ed/0iRLSAn5pIxpYVgvGsHKFFljD+S8JKTCPxtvgwjlkocaMsG/xBODRBBCaJxyCxPCGTQWaoHEZBbisRvc3P0Jh/gJL3bh8iJ8KeHQdHdxMDEElXkvgvphWXuO3Bp5A45WsxFauI1chnKlQp/kUGCyh0+IJUgIPX8VG35dAIX5iYCGAWEjBfYFsCWMeUTCFBABhiBJtuhbMVCwu4X2N97IhWhqhEKbATFXeShs5VY9HiTeSOKqXwhlqJLyJKVCD5zGAh4lnJMT0T89v+IREO+J1rJTZFQ2wCEIx1t4kawjXRPiLHo+EcFWBJx4rBM/KCDMgnqp+aggAwCEUBtB3V4TvFz/FjGug01KEtAhC0RVv/ieWPfY2PB5JCiJ6UXznzouK0JHVP2MV+6AiAOy8AE8JbfqpsiKWBeN3rb2uJOKSIqTFYvz4VWsN4Zo8vBSvuq78HPUVRlMrl4mVOY95bKxEjqjxdqVxJbsSK1BMH1Riw2v8LiT+90pseL0GUqgIwmS0P15HqtqLdmJxWXuxosWaFLFeWJBzwOPYBO5cim6/R8yI27oShtcLNWJNUDuP5R2EGiUgbHwSrm7s/ntG4jIW0/ev4rf+BVtIxPTNX4LHCY/u3U8AwKfiIXh4eRVbjusE7Ech72lCWkxK44CMfX6fOGPCyhti7iBPuJEMgXj8vBG7uca7twIA6p8ISH8Wj1eEpyia8iPmMhEKMWWJevG0mvCbox+lcC0ZgnjCeTwWPIpd0MgZFCQ8faGsfUfjD7mp++UixN62Fpnxa+kklewJJ0MQP+Uposob+eJr6amfsEvBjHPZGdaEQ18awiQki8gIXLF32Pgr4do1ttihIjqXmlqT4nTJGQ15LNzcuKl0IS2KEI9haKMlHrHP8rBKQxDyWJgWAAAT9n/CdasGdqXW0oW0IMLGJWJHFMecI9lVwzUcFEbRTuUjvvhGeepPNAThgqHkDu8Q66TLIUymeggmikWRP/1QDddQzMS0KLBCfa0qi0nC0w8oCvdFYB9efJc6CwsjTFY7tcSRRDxin9XH0RDEPE6WQBMAGCL8yj7mcQXs7MLF29IQoqkuoh2oTSlPWKwP+iSWdKCYqkIqLXVFqyJYTKvpmrS4lDaAmIql0wbgEekJXyef4RvJulGiSsDSKXgVEFPhy8PIe66QFkYIxDRRf4BHtCcMxDThMbB4VUJIV2Dkm/AYBKZzhbQ4Dy/FcyDauU4W3clwLQkMAY+FY0YLKRRTuG2QDHF1jiYtjjDZW1pbAxsn73fivSnaE76Ot6l23ia/n3+OLq5p5AGXxiex4wW2fi7jizt/zO9oUYSNj/H+3wtw8VW8U3gv5XXx/uB9wK1kp/BFyivvxbuKcNzii/c/zpuGS+xykxu79G4vfB91A3mRfKqRdbFMhLeF/o/w9tP/HMK7eK4NIqzBs4nVO3M2Ebi1Ljpf+vZunC+FO7jGhta942eEpxr8tJSt3Ylz3mv4nDc+q2/cgbP6KG+7NVS+t3j78t53t5fuvXwLOegnFiC+mfnW370sRdQ3M3f/u6e7/+3a/8D3h/rwxsrdfltiux3xHfCdlFMWVjMKv+Xu3r3P8fG33FLhs7tCA5hTYXb3lE2cKypCeHD3mBhnEYoQ1jHC26lbpfQsUvaWLs4BSmR/ITLKoPbLTU+TmfwmMz9NX0LYWTbHUL6sQVuZd4McVGxC/J6ZY2goIUS6hswTpab6QtkNsxLSoZpcLKXODLgbjB6VJ4rKgAnzRCUJ5wTCg6xcX2q6Npzrq1yEME04keuLypmMsgglGZBz5GtTUu5lJFVbCiFME07ka6NSfSEpTDJ35si5p6ZNhJXSMjLQ5kUIp6Gac2+PStcGc+6BZMIgb6JGijGgYyVv4uJZhHMiRFO8puRNpFLuobyJSco9mPuyT6Y7g6R0BOW+nN/nnAjn574k0ibi3Jcg+TzMXwrZTM7ELzITc6QRzofwIiXxfEBknl2cvxSkg4Y5aDETW0QzssV4tngq6HwIoZZWctBSlqKVlr4UIRxgv4ZK1yt1JFce4RwI0TR8JOecJNSMlEcYZrFGuaBRRuW8uaCzJmIuHkJ7nz8XNErojRAOkPNK5/PGEPPk886BcF4a4QXyeSMtiXOy99PTYkdUT+8Ky8jJngPhnIGjTKGUkx3X7JYqB6C1UzKv/pfUvPoZrmkOhDiLMAZIySjOq787L6++VJaTrI1wXLQ2wuII59RGoGx9ntoIMr/p+hYQIqpvMVdMcyBElV1QRczl61voHVxHhypZK9UoAY3PddwWR4iy9+atUaLYcaXODC4VROpTmDN5E8xcps1jzOIIoUOPyraSydjz1pmRNmry1QqSw5ww4+96VAsIIjwEv6u1glKy9ZdUK0iqpUPafahtLmAC5sO4ZOrFxYcPcb0n13WDek+oJ0G9p0lcEGrrqV8g6mI1LNAKtRdIE15WvSddHyO2W2Q94SegZheMc7a3grpbNfaIcwOV7FKX7xgq2uWXWQ2ePdyGFgjU7CLLkhWp2SXJKSOnYuiD++IFS8RqQYFbEs4ixELciNfuTdRd86Jl1Gmy2K5fO+/p1taE3XztvMOt52cXFydkBb9itfMUfYrj/Xpn1G/3Jo7xqIwyt4uA9OsfMsfd6J5m1D90F61/KJfPE8V2h/un7UmNW/wb1CQNa1jymts9aMZAitewxOvDvuGvNw+ms92w/ve3XPIPcdraxpJ1SL0gAz/MuW3yf9D2lIdzyVqyssm4BVs1rJZSfTwNoaSl/vlkkpNwDkJ9yP/5fAOUvy637L0Voahuuv9/orY6/9a11T1tUxSiERa7d9zZ9vbzgDyf8+IZcDfZoee6np2FP25vb7lO+EjRmcGp1d1shHp7sa1vqcCt5yzHJVNxoLGVGj1txg77GWKmQdegVYl2uxZAqM/mH0IJjJNpm46LCpXL9VazEQr6gNrpuY7XOs8skc2MNC2TibCeeh6M+XbXnGxM+63mcICDNBS05kKIyrb6tXAGw2arP+1NzNDXSCFyj2UxhPqAgGiYpsnd9ukILmmhWkqcLG61AMKnkIVIOw5Hp22X+28mAJI1mRdEqA8ViKzd2h+qN8L1P5qJ2QgxCx3VjR7ut7oKQJMMYBdGqHfkOWD0CHzSEU6SidkIEQvlRcEIY08e8XRDuCBCvWnJEA1KKupoJKjSx5kIn6EDJpyKhFqKc2xTq4H5EOpN+WwmI514tCFA1eTKQgjX4lKC2a5S0SglnsiHUG9qimTMCElF3jmx/J2FEC50kyzsTBT7vJvJwYUQ6p2aDJEbLeUuVCzZX1/Jh3AdnoahZqEqoSmrZAUQehpVVtLMaiuDPEGrO4qyyUD4FC1AKYq03pb1gcYyzEQehHpd9W64MoAjNEuMH49W9/YWQujddvQjYpCiIEe7SgeMGrkIWBChrm+oPqo9lmYj/jbFc0m+PDlJUNIIvZ9PnnyRBEA+dTYcq0EAnywGcGGEettWvCbO8Gxp4tXyIKCpPz4+OtnzaRUhXA2unRwdPw7kETv5kvj1merJmO4cZ7sYQk+TqI6h6SBRxdXbgKgNvvxwfAQQGltHxz98SfqI15TwPvzIIUIcKz0eLI5Q36+pQ8nsHnB78YkIeWEBfumINybxMXMGDjTpzZ4qO5rBW4t3OwdCfTAjRtOwxgmQFl7AdNBETUU4xAMDeN8cW0R0s/AUzI1Q16dU2M/NsXgjChSlBb5UhC5+SMTrnTEnQglmbVAOXUkI9RYVvjBuzyLdMJTXMEFnUhDWMUCxKbvfs6mQ0FjAUVsGod7pkdUuDdttBWCk9SveSyDSCOuY7ZodyGi95dpU9M1Md264WwJCT6fukoE/s5yuP/rS4g6ASCKUAQZ6tDN1qPlXgIGFEOpDly5ayrjpng7QaWu/y0LdUAiHkn72/IT6wYynrFiYuVRMcYQeGw16iYoZpr0xlYOt3VEqwpESfE43bDNlY8vg+RlYFKE3GwkrFfdDuWR16yTCgRrvaan7P9jy3jhCb/QnOerr8tqIQNgiPIhUspxFIqUyEXqiShmrNAaYbksfA4RjvTXJ8V0n5wuEuqUj1OvTlOlIYrScCfhz4hBebjq+aS4bXxpCbzq27RwY5/w1F5/dLqBBS0KYE2MB8tyl7lL4lkboKcSpcWMfSjNTmy4aBt4cQg9jP8UDWZIMa3K6xPwrEaHuuyGkl7wEMdPutUrAVxJC3XclmVUaSMatWp/cPChAZSH0aL9dKwOkD69bzH0hqUSE3oxsjWvLiavBbac9KkU6YyoVoUf1/b5rm7zA2QPmMc+e9ZulwtPLR+iTz0puZW5OQ3CGafKymRfRTSD0qTPqb0zCM35zcTKDe3dNNvrUtmspdFMIfaoP/XOajr8J7583CI5WBP/5h2g4N03L5pNe1wN3E7yL6SYRRlQfNlun0257ozdzJ47mTNxZb9zuTk9HzcFNQovov0A4XQbV09rKAAAAAElFTkSuQmCC;" vertex="1" parent="1">
          <mxGeometry x="173" y="390" width="55" height="55" as="geometry" />
        </mxCell>
        <mxCell id="4T3bCirenjGZTBYiXq4K-32" value="" style="shape=image;verticalLabelPosition=bottom;labelBackgroundColor=default;verticalAlign=top;aspect=fixed;imageAspect=0;image=data:image/png,iVBORw0KGgoAAAANSUhEUgAAAOEAAADhCAMAAAAJbSJIAAAA+VBMVEX///8zRNz///3//v8zRN0zRNozQ97a3/YWKMX///szRNkzQ9/9///3+f8vQN1UYsesstoqPd33/P8nOtkUK8UmONvY3fFvedcgNdDy8/rx8//f4fPr6/1wdswjNcsfMtpSXsmNkdYcLdBgasmlrd8rOsaWnNdocswqPeG9xOjGzOl3f9UyQsmZn9e2uubN0u4JIccjNOEAGMdUW82utut/iNVhatNyeccyP86epOA8SMQhN8Y0QL8KI74MIsaNkdI/Tr97fsJOVqq3vuSeod/l5e9ETsxETtJdZNTm6P9gZ8CNmOBNVs0lOOOordlhbdI3RLgaKrnGyvWJJx1nAAAXvklEQVR4nO1dC1/ayBbPY2ZgMsloArE8FDCCRorCaq31UXWv1W7vWre73//D3HMmBBJACQq2d3/5765dKUnmzJw57znRtBw5cuTIkSNHjhw5cuTIkSNHjhw5cuTIkSNHjhw5cuTIkSNHjhw5cvwMGEb6z38XbBt/GoZt2xF9/0oqI/w7V3AG/o10jmkycB0Nw/i3LadT29ysbxQ26pubNSf66P+TRMPUbBAshmnD+IEC51t3fXfruNcYHB0dDQbBQP3Z6B1v7a53vyGpajENuMqMrvjV6eaGGfOfs/HhpNUpN3/zpU51SghhRCe6Dv+j68z1vzfLndbJh42ITJgRW1Mk/uKb1ObchD+c/sHHTqUSSsZ0IA4oYoTBf4pAHUCppTOduGGl0fl4UHA0g8O/tvmLk4fTD+tXOzz9NPBZtFYC/sN/CaVIGfyJ66jDelL4BL5CJSkNPp0e1rSIT/nPpuFZIHmPH8vNkFkWUSRS4E6GlMEKwi+UqLWE3y2kD3mXWsDCLPTLfzwCkfyXJdFQ/9jdrWJFEkUQcqJOhyuGxEVLqMhViwqfAd9aBNdTfeSXt7o27ORfjlMj7WZyrXZ2HijyXgom/fMvNbgbLqPBjV+EVhiP2j31k0aJ0dcQiFKI+pWTOpKHNzXNX4JCRaNWOC2GhIjXEQiMrTPiBlsF5Hi4q5LLvwAMrf5uEDKqdt4rKWSwOaV7tVXHFQTp+rNpi1A7Kbow90rtvY5A1C0gXAlxi9ubygxY1ZiN0Y/nvqTsD8NuX7hMj6Tha5lUVzyAdxF+p23jMoKNNGckxoz/m08h+qr2c9/A2TU1EKD94+CVC/cEWHDcjyy5ebwKtpC9sKtiGNocDlGWNfe2i/LV4mU2BJVXJ54yWJ8dSTQJi25ZsA/53D2AC3gZUvZa6fIELJDM/mUf+en5ccBicPzOQqpFqaNnb2yAiW0fFKVurYZHkUT4R5QPYKaft+PQ0ONKfy5AYrVQm/d9k9fWfEJWw6EIynQB6sdfq83RijAFtbqjZaWQo3vX7ny+OPGevC86Ogbv9yQu3+pIHN5bdvrcViL1qSHb2xefQfJmFaXA0fsDaRF/96kLwH+HaWtfLUE5ZACj4uoQzfGnSDS03SbRxdU+z0YhuqB7IfoGnSf2IYo2mLZAgIO3chIJscDdCq61Z5S/3WEwD+FeRi6F8dtrklm6XnSe/Ar3Tn1hkbdYQ0vowhLNU5s/tYbcKeowXraWlU25Zq8xC5yE4CkK4Z47FWJhcGJFiiIF8B9hz+x4T8kbwynCYHS5ZmdznXFHwxoyyp6kkHsgRBlGXd6EPpxGopda3lP7ENaQMAoUZt6HyKVsNpfauB+cVrgyHfgEYKO5a54yX6akg+EEONVAYTaVH1Goz6ZQ6V5vx6XWG1MIhqEV7gCJ5jQnIpcujUI0Ee2tEn2tK78wqCWp7p9G1vBKKYQpvPapsOgKbZlZYBY+sHkNamrFa8i19m8YAYQnPjEWshxM35jCxP7WnrkPl0UhXs67ZdSCAuO6I5pgm7h+sVhGFCcw9UG2jwPfFclpU7KGgurvGtqkAbosCpU7aGx2GElKGTD+YYs0O1tn/xSWiP4/Z3udQE6oI2IJ0akpAldBIaoJw2u5eoo/Kdgczfvb2vArS4JimNrhuS9SkS10RCO9nhKoy6JQRdt3fUvQtC6UZTDq+XJj8Six4Z52uyxSRhMsIvWv0QRPmjdLolBJ6f4Vwf2enNbwpo6haTNyxOMnGDN+LPIxPs2Ee979kCkhpluSDPqr2YfAG4ZzCUopvYIuuqcYDjAMc4lQASi4La8eJ0kE9gEL+9xLC9QlSpptHxyZEYnIQOF5lWPWV1t66Ha4GQ3nhwu6KeJVMDMIhv23DXsFFIKcKZRTog2IFZ1N9DrnBIpeh80erGKKV2l5YxlcSqa5dM1NEsh0KopdZamuNPFu9IO0k0Ysdy0lTJdEocYPm2lnkJFKO0oQrTQ/xI3HYFItNm+T33ghhRhyTnGpd5l26akebsVx/WVSNAnQQqdh8sEgbeTl6/chOp1HqTV8LE1E1eSlA1437vmV5odAqFY7SQGOPFtqa+PHGs6ALUIhfE1JGjI4sbGwwrC7v6Pf2SFjc41RarFgPxZpK11DE/i0Gwg9YWmAyupgwc7vXaWDTfukCapSrs1yPGYBI1GMyIt9UONccw56R2DQa4++pccWv0rTu6dvU9qDpUfaScnSU8mD0iPYGe2jXtvB2K2232Cgmu1szITW15orz+sYGzbbHV9eONy2HwQbJwdxRjug6s2V6onheIBPeQ3jhUmDWHyFT50LGaXgDK1+LtFizRhN1Oy18LiGJsXGsS9puA188k+gi3F6kOis0sbihDdYxMipb/tpQU4CjP9uh0z4rT4yW61VWpvhO84CiH+7dVnjoHJ2y9JiJMCc+k5IwDsbriFGSs+9uVmvJQEL5QzvXqYo1N2/YFSFgOrULe+itq6et+yMtofN7f/Ukc5T0EOwv1u2wetFTPKKWM4QGtyitZ2R8V8FVadjGrcBISmJ2tiEv2xJC1zxYAsoMzb/kzFeitriDu7qrJWAGRn1z2ChDpJMwiwmzleXYJ8N+1ykKNT9A1ixL76qTHJ3HJiEOzNjVB/2K8gpe08RRVm5Ds5fikcIOGmPxtsWSShhnpA0sGPuQSjWy1hGZpFwD/SaljEzM8xvX5fA7gQrVz4Ak24EyeghJeTvp+LPq4KheRcpg4PSYMPg9rGyWRn6xSj4sspSYOduQLDuQ+hy2zD5l1IqPkrln6umaAomCM50GNr/Aups22WqOFAPukBvNgqVFWZfSMpQxZKrPlx2nCpWI6y8kZUhlgbD2CinPAzgLuDLfiBgnBIlj6eKqDLdykAeBRbFIldScUDffqZJoxvuPWGoJX7DPZx8UNZKmMiAT5SMpC5UjPWQ9N7AOf1c44bTwECjJQgpXWe2sWCAtXIktghBY0/b99Px3+9nyPTJS7D4xtSUTeHc1etVD58GyoTPKxRBRWAbir3sar1+V1XJL0Sa5dCyAYE+Dr2Br9/ch7+IHD1EuZbRAsE0424pvs/3XfjoOkzFSPWgkCYwcjAwSbvZ/qPTKDcaX0/6YExxFbt5lkKuYliggvsn9xeVcuPTH+1N3FDAcakLMdoF+p2QWCDAEoTXcIPdOA1m+btaNisSYyOXo3hzcx+e1JIpTcR+xBXn41mxMaNRPbnypWAqBj44Vv7/vM2PJQFAT/d4ICXDSnfSDH6vRvI8dSXc3jtn+jjcL4hswff2m/GoxLmXUTpwEKSjLXf1DQiusBSF4FVMRC6Qz7h2+7eLdduKlRgNr/Y8YJs5jKOCat7WALaSwGpokN5WWD6ExU95QrgPDe3UtUgi1k8qHte+fY651FIR/wyAyToZbmmikwsw4etHLOn8Ev8DluOnKYRNdx1ILNiOK/KpHt7U5u1DG43EzZuSzqSFheDEojib5W17oloPQ6T8g58YBXDsUR0m6CL2qqg8yWiXGvbXkeR0H+D3/UBPxLmpVSzwCd2Kv+42VeF9VIFvwVKCj/lQ5c8zDiw+r96Av02tqCwco4Xwo7k7IRhVVqhQHFeYUSIp+OAgYeUw1MjI1+drDceoV0Yr5r6D33dL49I8ZMCGN7ky8Ot+cTohZrn/nSfBYYj/Dacu1PXivjE9XOdCH0X5YS6pewB3/0uOXLrgLptNo91WRteU0HgBph2ZNBTX1Z4UAwav9txpCqnefHxeIcJt1pti6kJiuZ3q9Ldt1Ig05lIYyQl8+Gcs9xmt3Gak8EtpxJOVM/hkB/bXmEst+S4K5iQv4gf+jMITQcTlvLJC+1JMVz3A8P32jNG+c0d5S0wvsB0wv9ql0VWlLxlV/ns3lp2kcogzN64/xPvizE3eyT5WNUaTAwU/sj/nof1gRkkAsRh7mPHlbTYKM6A0Y2hbHVZijiHyfSb6bO2jO17DLqih3nj0KA5KB9pkIN9wPk14b/F8fF+f87j17/p0whwF1qcZtS4HcmQ+YtRI9FCVDvcUZlE+ZqJQA+k0fCZhlQ1wW3qCWENNKyixStODNryeq06kMem6JYCUklpwvaUsq+ew34zORcEVJVkquSWJdR4URu/NmI5SUm8R1gMnbmO0hsydtJefwrkYBtWQQpBgHTk22iih/vSguXYQCN0Ng8bx+y+P648HJ3/1rvxQkvCH96y5zw3vB/g/rl/sfPzzYH398cv740YQukwEB9ODNfYrgiZCmqzjIIUkplCeZ6JPsy9HphGp1A2tmnA90Z8KutPXGMbB+eXObjcSgDg2r/B4enO5V3+++NU0+Obe5c1puzBke7i02t3dubw5mBV06Qbj5B5SeFE1jJFuo7qcJ9emKCRIoVEFByW+LWbwZlCIgTnbU5TZqi4rOrBkO/j5sw/DGidP1RSifQoXR/agY2L5/QwKx+EoPA8GFPJ6I5aCdK7knqIwXkM2ysmQ2RSiV4iJYOU9K3NAlROg5zAn0M7V6S3bjg8/4z1MrNqeGaoEg3k8tsk11DNTCPtwvIYgaZwLNip1RnszmN6HMCpuxAfNjHFG3p57kGB4XsRQ/pHigcgXRPN4+sp9X9fT+1AzYkkDG0hk24eGdiNjFQUUghv9CX4fmYOMlh61Kfft2fupn6Y5MqZNxZKzv/c81iujyUa9xT7BztiIuRS0xywdOmtELXe0ZBVw8ryvcsQaaPi6Sh8uGk3ESoeRNOEvzFcdlEZTjbpJfAWNEutDoBkcxiww+btwdJvKLQzlQSZyo0SX25q28NFHNSHDSzBWni3DMIlt8LFGukFFOjWwoocDY5GfkGUwf/qjcAjYpWC9s7FZikr93QtOlKsamaH8f3m4/N3YpsE6AvkX7NizUtpPyDKYw7H3BNcY2olMxH8sJu/Viiw4zP5l73BYX8C1w85lf0HiFO7HlW5Yvygj32K4MSmrHGaMCG9UYnOfwLqDMi8lLHqYqgtn8aSTfRPKcjuKGGrtsgzvF6cvJdXxuARYyIb2LoxFhAC5mPFGnZjCyNLbb6YOb5FyYfEaNvseHJTK3oanOYW9CrD6g70Qs6La4YUywzRFNNewhkpvPQylBiHik5NtDbm2M7IbWBSnISRJof+B2/Nslam77hfBY3HLX497ZSl1Ue4O1zMjMIbKP/ioxkbbjhzV4S/+jhfV0ncy1kwY2mNcOUP0z9807gXpKozwZHFZD5zwdwhLJ2CqGQ2HBGa/j4rZnSTjCAR8es8wvn0eOkKU+Y9ZJTSvVcSQQIyXgoJkyTXUBTgMi+a3QZBu7gSSgJPE5GBnc9FCKqTQ+8HGdZGgK1gLGG4UL6WyXMs4Y3Cv02G6kJJwF0PgYWoRKea9F0z/qgP7/fe9xkWlt9Wfeahg7h0KgZ4EC69hq+yGsQEmT7PyBJ67CxhuPVA57pqGXipNRYv8gxeYJCp45dzV7xwtPp66wE3Qwjjwk0cBma4c1R2pLDhCadDPGi7Fm+1IoYqBLeB1zah9TokaXR6/0OrCk6kvrCXGyGg6t0A+b4IbWkERAxYKw8hltluhFOcbAxHtPWsALKUdp84yE9AXb50/tE1eSBfwURWH6g9UlB3MykE9Y0VUFEDXdpsWzBLYCfIapu+Ln7q5FW7P8m1WCVj7bTeVIdVLX7CixlWjZJZ/nd0cNLBWwWu5WJkLFD5gOL2SZJAoj/+2FNqa93cq7MhIpcBVpJNhgU+IB9d4VvGnVHH1XChvEGsxDO0+tQUIqJ7VFgbPGNK6r6fGoGMtBlg5BIO58keVY3I+8/1wY9cvJV5MS2cq/aqzsbQBD+pcRVTepKiGR53D7tPBf6oE+pn/SejMkpf1hTU0dkO6KVkwQ/LY1ozNMmiO0cF7i5LmIZ91jGwVMDGXx2+b6VPjrFEHoaycdcvHNN6it0UN7ZyCWhQ66HeOdW0ijmVgsEace9pkjm01QEaxufcVDyIk4O7AqAoBFZYMTr05SbyZ91WZ8/2eT6SqTdwPqB5PItEFoc121OVo5cD2TKbWblrpRHTwj5KkhDUv9+fGLGcBI2Dg5zpfyiWJ/qB979JxRB2d/k6VZz7i/xrgQ3itI4SVdOHYg825c+F+v9itKuG/eBGazaMilupB56gNNvujP55DguXCYAYu1ojihbAxSHcqsWVYImVRAj/CaB91Dmoo8cysyd8ZwBht93ds+NcReupMFwm6/C2EKVqR3WDsF6IhwmTH5rb9+772gpDRrEcYWJfQrqTsGhA2vWwu9WthcqeXKp8llGHM1uTLOy6HWW3N69FUihD82NO36FOlzlukTyMQcelpk1VTr3oGehumdpt2zyxBgvbqDXDQhu0gpezB0Greauqs3JLsKuRRGwuzWqkKRUHpzCTNsmF0i+lzz0QwrFm35/ceyvwITTVO4dpGWZ+A6G0OW1UtV6qObgaTe9cR6UAYs8obKoE3ox7lVQ/FumEfN0HiEDdzz6uYVzPtxWKDcx9mqNwNnrKsnoeJNncMDEYd6yyX+LDRQ8E29C5luqseE27LUcQvucOhOk9l4pGnVgi7IbaIGWpFeenNb9L1AqhTU/0BdnVJCDZCw5tNY7qS8NUwo3PhdzfSArYcmqRElcriOeBVLGLUHBhc//RJZ2G5jbZqObpUhzHKd2P4X+CUxrIUl7C5q2o2l/iw8UPxjEJrnN8a6gydNO/Xa8t/nFa7vW+CfYidjIZzyrAaoYWnJVbhf0cpaDCBpVC9cYcWHDYjosJfdk+Fwj9nW53AVaWOJApqo6KnlujcqU2xfAJjOjloJ9VILeWsWSz0Zze6eCHKRX+6yQ+BDRJ0V2zsg0Rtq4qPdJmeUGce6NKAXMImKFRNlsErXXEbZXVSoUkpo+k4vxoAU5ic+ZdAdVCeWD8swsCOESumEJWCfVqabIKlip+Ha7gMCvXpiaJgrMktc+WdsFFlcG/HB52RDrFTVXiNUL3XSfQjBhn9SZ7/ZPhDp/pEEx7UGXIHVf2bRDEdMDSQH8mq+nrqibiapZQh1VnYUmHot6DQ5N5aiItm0aXsujmkWmoyLb/lvFmvduzEs+czms6brgpYbgoL6v8363mRpQDFTSBe3fg5E/CUiUWwb+LbtdtXNXr2dVHob9HSDI02gb0v3/LQatTLqV0RS9INzwI10WB91f1FZpLpBMRabes9POILQlR2XlRA9XpsHpHVNhfEAkvYCf5a7ef0njcKA0ustEEkJmgt1Qv6+UOMK6PwFjubrZJC0EfWsJ/3m+9BBcyrr1RdWLq82vbwEHrmGoTl4lhSK84oLnk7EnWUTAYPfdXK8O1fAKXKYWsNgTEwVS1IVKhIiZ3X0oo3w8OwFvU7Z/ZPeruVcjCMw0BVz+l4ZIjqrqTEsvRldIcm2AmAusF2zcjYjmU1RGp7LspysE0tJoS/937gqhdyvVL2gBuIx9PCwZbqALTYywCWSZ7JNxsMT+iARWUpo0ornAYunYo9vIBGnbhFfM+M2n9v3rthSCFgt6Tq2wn2d+l11XzXTxq+nE/CHPqEelcQJl/NlfeCexJc405DYCgajBq3vO1go0rs8Inve1In1iOJEx3pfkrSqtg5UYf41HeUX+8GP86qKt2lUugZe+osG/jsXZ/iwQAhr7Y24hC7auHa3Ss2pFTvIKMqE6aomcG8cWUvyGEL+zPBnwTf2YXHDn+afBnCgF14BRSIMGic3CVyYdw0cSEPP5Z9V7coU68WwBfKRQROrGVkL5Cov5bFwmbxY/TetV/gBYjcXgtlc9A73XeS76OJMqm4osN35+FZXTJWkulztDRmTpgJ5g/fnfdG/cPmY/3m3fZtwdOivj7xXlG8ZeIpNpCATmH4/kMkcdhObmo/CqJLt1LufDzoO/GLSbETyM9+eR7stpGxYUYyb/gXSKNKP5vqUI16h2Wv0fwtxNYho/p/xbBMl99/a5Z7w3dYRh29bPutWqTNgZ042PXMcKKhZngPKY+OV64kK/gWGK6J7dU2v9U3Nur/9++SnYJK80+dH1Hdlv4lFKojS8awN9IQZiSSfvbQloYoBmFE73JTJSLR+i23WuSnYtjZKo63ROy53AKVHDly5MiRI0eOHDly5MiRI0eOHDly5MiRI0eOHDly5MiRI0eOHDly5AD8D/vkm5N0PDusAAAAAElFTkSuQmCC;" vertex="1" parent="1">
          <mxGeometry x="168" y="180" width="65" height="65" as="geometry" />
        </mxCell>
        <mxCell id="4T3bCirenjGZTBYiXq4K-33" value="" style="shape=image;verticalLabelPosition=bottom;labelBackgroundColor=default;verticalAlign=top;aspect=fixed;imageAspect=0;image=data:image/png,iVBORw0KGgoAAAANSUhEUgAAAOEAAADhCAMAAAAJbSJIAAAAw1BMVEX/////zDszbJn/yzYtapf+ySb8////zTr812MdYI9ch6tdhar91lz9zSxvka/f5+392W7M2eD78cv99t4jZpVVgqMjZpP///z+yi91kqn91V381mTT3+gva5Yuapm6y9jv9Pf93X38++/13HX+z0aswc+Do711mbc7cJh+mrRhh6bI1d1Ke6EgYY6ZssR6n76mvNCOp73m7fP74Y385J/96Kz67L784Ib+6bVmiqX9+OP89db60k62ydj822389dj+2oNcWN3GAAAHGElEQVR4nO2ci1biOhRAW/qIBcrLSHNBQkHAF3JHEcXB0fn/r5qklRGFpinQtJ11NktHGGRlr5M0ac6JmgYAAAAAAAAAAAAAAAAAAAAAAAAAAAAAAAAAAAAAAAAAAABsYDfHk1r57KxSOQv4+IdTvpmMz7Nu36GcX7cxNik1TWr2aKnXo5T2euwZ/05Nip32pMiSzTPHLNGSGOycNbNu6J74lw63izNk73Au/awbuw/NKxzrtsYsFTCMfXk/Hkbcz7rBSenjXhLD4ik240ffd3ChOqp/ZQaBcTiysld+1s1OwHUwCPHNra3Z/ankiMTXWTdbnuZd0OIZ+9FjXxNJRac4/fSGfg3Ji1xHpeUM25yIc4e3985ni9KPF2SDWJQF3CRYylTWfkx0KhnESZbNToBZYnMh/X/jFcluWqKZtTkR9aCT0svPGIYDU6ab1jNstzzjcNT1Pl/xr+QES3icXbMTcB8aOp/LsB+ya1R6n2G75amFXdL8u0apSy/haC3LhktTNj+aOw0v/rcSt4hrw2LMiGtDdr9Qm41nNwluo4pi+BkyirFpCoyKb5gUMMwJYFh8w8o/bzh1RPwLhnURD+1/wFAMGOYQ/3Z2fVOuSCK+0ObQ0B+XHafNc2eSiK+zgeG82gk4aQwen4Z2bBtS9ZtRvP/UEGV4QQwUPAyDWFZ3McxOsJ8gu5TE0NA3MCx9npGjLbvRe5ihriMyespC0K8lSy7tb8ji6D57ygVt2e2zYxiyMHaV99Ta8buowFDX3RPFUZyJ15f7YkYa6uRNqWI9HUFBDHXdelRpeMAtoNiQ7yY2dhsi912d4G1KISzhe03zOrsN2VBUt75J5ToaGI41bTjaLcj6aUuV4ENaIQwyM6cERRiiqirD8V1ahib79KUVZaiTn4oMZbOBicE8Q/o7Moa6u1AjaMvmyhLDs9xDFCmoo64aw4e0Qkhf2Kc/WZGCOhqpmfXP0zLkIbQbRnQMdVfNQGwmLFmTJRiFLUvUS8lKjWE7FUM69QXTfWjoqpkRm6ncVpQwz6cuBKOQ91JFhsINwX1x+pqn/SS6YBSqMzx+DHu0fcs+2XsV9dFCxxBf1VkEvQERCxY2hiae+Oxz4wWLaUgxrvFrjD0cuMIxmGdDGrEjzuQcZ3of1qScVmOuMnk15KdippXaTi6vZ7/qH3e1C0QEU31uDalzdzmu217sarJVdZGEYN4MTWf6S2bfwVtW2VKtgIbO2W3wdi5p70bzvPflm0tEi+3cGlLzR/hu7+dy/jxo7KT76loWm+RlBfNkiM+CWljvff7quoRFKUiWbeLyb0HPlOmeuTPE4WG0VoMQHiLugHT0FX0tJy+YH0N87bGh5z27McvMxOTFENf4/HA6chP0v3wZxqy86ZRfPltyM1w+DWNi2H5g08MTSUEwJ4Z3vN5+lYafQkPRPg2dajz3kIafrhM1huJTTMEBtHn0vvVBKIqhcEc4yHG23FT8WAzV7CYKd/WdPpsJ3+LvZfdD0Y6wMH3Y8zX7XbSrexCKdvVFh3z4sUp7bqRkaCjKzGgPAsNf7P+TrDQTQRRl1zZOxWwPQ57EFe9bH4ClKkMqqFTgp7kWKU0VrJOqK1WIKsenFZsNw9htzz1RV6mgafWITD59YYZvx75n+sBQVqjAiaj6ov/F5Tj3B7mnKg0jKveYoW2fpGOotuqLRWpn4RePoVZNo5cicqG6xNR/2RFFHkOtmkYIMygw1ez77b9aEozD6vFXNIg0Mqn13q5kD3rp8cehQebqq6AD/FkJbxtWj2yIrNFTdqcu/HH5zsGY0jCDho9vaFjoMcMTFwzP78+uazflkPt4Q0MeQiyrs8zWbxs7xhB1uycn3b+PjR+/P+12B4+tjE8F7SbGUL7JPDuVS8SGBn+L/fVr82kRiInhqZBQNHzklpgrjSXiNcdenxwwWxgdMMwFYAiG+SeRISJko9hE5W7aASS4x0ek+7h4bBjr3yiIofz9IQoP+HqrV1Qow4bsjjByV3zl4vGMahhFo1EIQ+n06EYaohX+DpkXwnARfTTrWww/7/zscG+HLDNstzzvkhlgo7ux+TIIDK3TQsTQk9xr+zLoBmGFW0YbTkl5lpsujNcNnw43JM/ZNToRK8kE4kbdwZCPXaQyuXQQ9olkN/07EO2gkxoKjzIfSEs2iB+90n4MJgtF9UBHIf5sSIj7+jTUhq2Gy6tP3UHWzU7Aeo0SB0LB3kXwZjTK28aokFbymiGkpt7pWPDqy2R+biZ/ZecQlolKoI3iCbKOOpKvySCjla0VZD2zwfDCklzcWBeFush8Yrc6VvxwJFanQPPgFqvfyCIkKnuGiOsav4t1Dd3C1laL58ZJp9rpVL/TaTwvV3nOTyQgr2kyAAAAAAAAAAAAAAAAAAAAAAAAAAAAAAAAAAAAAAAAAACKxx8ZjrJGDmPECgAAAABJRU5ErkJggg==;" vertex="1" parent="1">
          <mxGeometry x="128" y="350" width="45" height="45" as="geometry" />
        </mxCell>
        <mxCell id="4T3bCirenjGZTBYiXq4K-34" value="&lt;font style=&quot;font-size: 11px;&quot;&gt;Web Front-end Interface&lt;/font&gt;" style="text;html=1;align=center;verticalAlign=middle;resizable=0;points=[];autosize=1;strokeColor=none;fillColor=none;" vertex="1" parent="1">
          <mxGeometry x="220" y="81" width="140" height="30" as="geometry" />
        </mxCell>
        <mxCell id="4T3bCirenjGZTBYiXq4K-35" value="&lt;font style=&quot;font-size: 11px;&quot;&gt;Users&lt;/font&gt;" style="text;html=1;align=center;verticalAlign=middle;resizable=0;points=[];autosize=1;strokeColor=none;fillColor=none;" vertex="1" parent="1">
          <mxGeometry x="236.37" y="19.25" width="50" height="30" as="geometry" />
        </mxCell>
        <mxCell id="4T3bCirenjGZTBYiXq4K-37" value="" style="curved=1;startArrow=none;endArrow=block;entryX=0.5;entryY=0;entryDx=0;entryDy=0;exitX=0.5;exitY=1;exitDx=0;exitDy=0;" edge="1" parent="1" source="4T3bCirenjGZTBYiXq4K-22" target="4T3bCirenjGZTBYiXq4K-32">
          <mxGeometry relative="1" as="geometry">
            <Array as="points" />
            <mxPoint x="350" y="90" as="sourcePoint" />
            <mxPoint x="211" y="110" as="targetPoint" />
          </mxGeometry>
        </mxCell>
        <mxCell id="4T3bCirenjGZTBYiXq4K-38" value="&lt;font style=&quot;font-size: 11px;&quot;&gt;Back-end server&lt;/font&gt;" style="text;html=1;align=center;verticalAlign=middle;resizable=0;points=[];autosize=1;strokeColor=none;fillColor=none;" vertex="1" parent="1">
          <mxGeometry x="280" y="240" width="100" height="30" as="geometry" />
        </mxCell>
        <mxCell id="4T3bCirenjGZTBYiXq4K-39" value="" style="shape=image;verticalLabelPosition=bottom;labelBackgroundColor=default;verticalAlign=top;aspect=fixed;imageAspect=0;image=data:image/jpeg,/9j/4AAQSkZJRgABAQAAAQABAAD/2wCEAAkGBxMTEhUTExIWFRQVFxoZGRgXGR8dIBoeGh4XHhcdGx8YHSggIB4mHRcWJjEiJSkrLi4uFx8zODMtNygtLisBCgoKDg0OGxAQGy0mHyUwLS0uLS4tLS0tLS8tLS0tLS0tLS0tLS0tLS0tLS0tLy0tLS0tLy0tLS0tLS0tLS0tLf/AABEIALQAsAMBEQACEQEDEQH/xAAcAAACAgMBAQAAAAAAAAAAAAAABgUHAgMEAQj/xABDEAABAwIDBAgFAgQDBgcAAAABAAIDBBEFEiEGMUFRBxMiMmFxgZEUQlKhsTPBI2Jy0UOS8BUkY6LC4RZTVXOy0vH/xAAbAQEAAgMBAQAAAAAAAAAAAAAAAQIDBAUGB//EADcRAAIBAwIEBAUCBQQDAQAAAAABAgMEESExBRJBURMiYXEygZGhsdHwFCNCweEzYnLxFVLCBv/aAAwDAQACEQMRAD8AvFACAEAIAQAgNNZPkY59r5QTbnbgPFC0Y8zwceBY3DVxiSF+YbiOLTycOBUtYL1qM6UuWSJJQYjF7wNSQB4oSlkhsS2tooP1KmO/0tOY+zblThmeFrWntFi3FtRLW1lNFDE+OmzGQveLOkDBwHBtyPNVjODbSeWjadtGjSlKTzLb2yP6k5oIAQAgBACAEAIAQAgEvA+kWCW3XRvp7uLQ5+rLjeC4d0+BTK5uVPU6FXh84fC8/kcmPBAIIIO4hDntYMkAIAQAgIraqk62knZxMbiCN4IFwR6hStzNby5asX6lL7C4m6k6upBOUyZJh9TSR2vNpO9YnV/nOm+2hv3dTnu5W0usU4+j7fMfcT2lqayd1PQOEcTDlkqSL68RHzKxXV3Tto5lq+iKU7enSip1t3sjoptloL2nkkqZLXPWyE7+OUGwC8/W4pcz1XlXp+pd15L4UkvRHVVUtFSs6x0UMYbuOQXPgNLk+AWtCdxXlyqTfzKqVWo8Jti+3A6usmNU6d9I1zcscbO+Gbxm5E77Lo076nZw8KmuZ9X0yZ3Vp048mOb8ZJalwuvh/SrzIPpnZce41CyQ43r54fRmGToz+KGPY2P2orodJsPMg+qB9x7EXXQpcRtqn9WPcx/wlKXwzx7nDiPSaY2F3wE7bcZOyAfbVbUatKTxGSb9DJDhvM8c6+Q0bIVk01KyaawfLd4aBo1p7o9lke5pXMIwqOMdkTSgwAgBACAEAICsNucOloXyVUDGyU0/68Lxdod9dv3CpUpeItHho7FnVjWSpz0ktmYbM/F09OKmmljqIDdzqYEjIOUZcbgjkVgp3PSemPr8/wDBa4jSqT5Jpp9+/uPGzW1FPWszQv7Q7zDo5p8R+622sHMr21Si8SXzJpQYAQCzRbXRvxCWiJF2gFh8QO20+I3q2NMm3O1kqCqkptHXMhpppJHANDHb+JIIA8yVCMNCDnUSRUOHYZaglDhr1Ln+RJuFyKtbN1FrvgrKsqvEXUWyaS+Wg8bIUQZTU2Rtm9U13q4XcfM6LkXtRyqz5nrl/bY3LnmlcNvoLO3Mk3+1KdtNJkmMRseB1cQ13gbfddThNGFW2lGaysm/bKPgy51pk7Nlp2VD3yVJLq2IkOY/dHrp1Td1vHesF9RnQXhwWIPt192KkXDCj8L+/uNHWOB3n3K5PhIx8sWjOeuAF3G3kFMab2SKxpdiHqMfk1EMUsjuBtkb6uf+yzxtFvOSX3f0RmVCHXAsYts7UVjg6pqmttujYLhvudT4rfoXlG1WKUG/V9TahKMF5YkxAcRhtkrmuDQAGSRi1huGizx4wn8UPozWlbUZ/wBP0JOPbaqiH+8UJePrp3Zh/lOq3aV/b1P6sP10NWXDov4JfUyPShS7upqc309Xr/8AJbXNDGeZfUx/+Mq919Tu2K2lkrn1DzGY4oy1jGnffUuLvHu6K2mE0Y7u2VBRWct7jWoNIEAIDCWMOBa4AtIsQdxBQlNp5RUu1mxBo3/EQNfLSE3kga4gtHEix1Cx16bqQfLhS6PB3LS+VRck9JdGcuJ4jRzsjdh8UrKtlgwwtLbeD+BC04VqtJrxUo98ta+y7/QzQo1Itqq8x9RrwfbWWB7afFI+pkIGWYdx/mRoD9lvxkp7fQ51WzjNc9B5XbqPPXNy5rjLa976W5qTnYecFC1WItbWf7QvYOq7tP8AI24PuoU26nIuiO3Byk3bLpDX3ZM4nicuJzCR4LKSM3jjPzng5y1rq4UFyR3/AAc26uIWdN0qbzN7vsbsVmy004G97Q0epXMow5q0X21OVYf6yXrn5LVjzgotExn0MYP+ULjV9ZuXdv8AJ1o1fEbf71EXFGZ8VE99Ip4oB6sc4/dep4VDktY+uWdSm+Wjyd039zdt7h7oyyvg0liIz2+Zvj+PIrdnTjUi4S2Ytpp/y5bMaaCsE0TJWd17QR67/vdeWnQcJOLMbjytpm0tVOUZI+saSQ0k67mg205uPJXUUtjYptJZ+/6HP1zG91rRb5jx8uKOm3uZOWUvib9jjqsQIBcSMoFySLK0KLemPuZo0khfmxurfrBDZnAuOW/iAt6FlQWk5Zfosl+WC3IPF8dxAAh4MYPED91uULK0zpqyyjHoi4OjGiZFQRhr2yF93vc037TuBPMCw9FvS3PNX83Os8rA1qDSBACAEB4QgK+2m2WlpnOqsPAN9Zafg7+Zltx8FrXVnSuklPdbPqda1vVL+XV+T/UhonS4s1jJ3xxwB13MjuXgjeCXd1c111bV1B82e70Xuu5uOMbdOUFqRG0LqmhElJTVLp6Z7buAGZ0Tb6gn5bhdajcRnHL+u2RTjCs1UnHEvycVJHFVzRMZ+hBHctPEngfstebnQhKUvikzl1XWsqM5z+Obxn0GHGZuqgkcNMrezbnwstOjDnqJHGtKfi14xeuXr/c5dnp/i2Nz6Pjd2x4gaH/XFWuofw8njrsbN3bfw9Vqm/LJaP0LLoWjKCOIA9tF56q23qbdJJR0K563+E+Y/wDqvaPIDQfle0tY8tGC9EdVLzqP+weaqEPY5jhdrgQfIhZjWTw8oRNjDifUdXT08UkMb3tD3usdDqO9+y1a1nTqS5m3k3LidBS87aYxmoxJn6mHhw/4UoJ9itaXDY9JGuqlB7T+qImXaWNrniZklPI7S0rSLDwO5Yp2NSO2puwinjlaaR0sc1zQWkOB4g3Ws4tPUzZeTXNAHCzhccipjlPQtzGmd3BdC0tZSy3t27/4MVSokcj5LDUix+r/ALralYKTy8fJYKqv2ObCsQkoJevphnhd+rCDof5m8issITj5Ja9mUr04XEcS0fRlr4DtHT1bA6GQE8WHRzTyIOqNNHBrW9Sk8SRKNeDuINuSgw4MkAIAQAgK36TNmoY2Gvjsx7COsZqGy3IFuz82u9VnDxIuP37HW4fdTcvCeq/BG7LbSgMeymojfc5pc0C/819SPRcGSnaSbr1cp+7+2xuV6CqYbkRuMbGyRROrmVDI5bl7ox2WgfSwnf8Auujb3cK0IxxlPvv7kOrCpLwKkcrvuQUWLy1pjic0ANOZ5HzW3eS6ljYxjV5+i19ji8Up0uF286kH5p+WK7Z3GvYyizOqZQdHTZbf0g29yuHxGsnKKfbP1ZS4g1Ro0usYrPz/AOhrxzGo6KnErtbDK1nFzuA/uuRQtZXFXkXvn0Nm1ouo1GPzE/ZuocxksVfDkhrHGVrrdlrnb2u+m+hF16+EFCKiumh06sU5KVN6x0HDD6R7G5OuMjLWaXAZgOHaHe9QrGtKSbzg24JSClhbDG52UXNzvJJuSVDKVcVJc0kSTK+QfNfzTBidGD6HtRURytyTRNe07wQD+VGCqouLzB4FLEdg2XMmHzmB+/qnG7HeGu77qs4RmsSRt076pDSqsruQwxGSJ4hrYjBJwd8j/I7lqO28PLjqjejONVZpvJ0PZrddCmnt0x92YHIT8Ww181UWyTNhiAGV775dw07IOqyS0NmFRRp5Sy/Qi8Vw74dwEVWya/8A5Jdp53AUJmWnU8ReaLXubsKgnLs7oHycruLPcixPupw2RUcMYTx9x1o9p8QhYA1tLDG3hYn3OYk+aKi5HLrwtYvNSTy/3oic2V6SxNM2CoDAXmzZI75SeAIdqLrFKGNjHccP5Yc8Po9yxlQ5YIBP6Q9qX0Qp+qbmkkl7v1NHeHmSRZWjHJuWtCFRSlN4SW/YT+k/ayKppYBE615byxnRzS0CwcPU+ymKN6wtnCcm+2j6PJ5i2CCoY2aB/Vy5QWvabZhbQOt+VyIVFF8lRZXZnLtL6drNwnrHOq7ewsYjN1hZT5JBPukMri4NtxZfTXfdbVhY1J1t1ydMLH19js3V/StbaV03mK2x1fRE9gWEsis1o4XJ4nku7d1Y0bacafV8ue76/Q+b1LyvxG7jVuHolnC2S/ydGxsj4BJC8Wfnc4XGj2u1uDxXmL2mqjT/AO00euvqiqONek8xaSf+Troqc19V10mtPTHLG06hzx3jrvAP4W3ZWyow9XudKhmjQSfxS1fohxc0EWIBHIrbKA1oAsBYDgEB6gBACAEB7UtZKwxTsbLGeDh+DwKFOTlfNB4YlYtg8lF/EiLpqPiDq+H/AOzVkjPubUKiq+WWkvszKItkaHNIc1w0O8FZckPKeGeCmaNzQPIKUslZ1lHCbMJ2kLZo01vL9+pxuIX88+HR2W7/APlP8vohcxGN9VURUcZ1e4ZiOA8fIXKm8nGEVCKx3HAqc5Opf15cyWke3rj06Jj7R9GUdPIx8Uhew2EsctiHDm0gDK4HUeW9czmydSXEZVE1JYfRosFUOYCAqjpwDmupJeDS73GUrLSeHk6vD6aq06lJ9Vj6mpkFNVMa+SNr7jR3HyJGqtXs5c/PQbw9cfpnT5HlaHELmxboTbTjp6fv1JCkpmRNDIg1rR/Mf3WlK3znKk3/AMV+cla17UrT55yj9cfbBBYzAPjYpL3D43M8iNfwuhwilUoy88Wt8ZL31eFfhdSlB5cZRb9np+Sbw9veI36aeCxcWp8vhwfw6vPq2crhrzzyW+ix6I0Y3VEBsMf6sxyM8L953oLrnxtnOSnJp/3PR8MpKrVw4vljq/7IYcNZFEG00ZuY2i4GtvFx4Elbx3Z80vMzskka0Xc4NHMm35UFUm9jCnqmP7j2vt9LgfwpDi1ublBAIAQAgBAeg/65+aENZEPH6A0DzPE0mlkP8SMf4Tj8zf5Ss9KpyvD2LVqUrmnhN8621az6M3GpJYHRAPB1Gu/1K31Si3nf7Hmp31eEXTknHu2+bHyzkUcb2hqAS3qjGebtfbgq1LiUNIxwb/D+B21z/Mq1/EXZaL2a3+WhMbDYrR0DH1UrzNVPGjGAnIPFx0ueK58uaTO7c0ZT5aNNKMF7L6IuXCql0kMcj25HPYHFvK4vb0WFnGqRUZNLodaFAQCZtyaOshkpZJ2RTMOZnWHLZw3Htb2kcuassrU37TxaMlUjHK9ClqLE56KR0d2uAOrb5mnxBH5C2qdaUNjoX3CrbiEVKaw+jW41Ybtg2UhvUyZjwYMyyLwKj1hr6Hlrv/8AP1reLkq0eX/dp+pOiHrACWFtiCL2vceS3qcYxWEsHm5qVOTxJPKw8bYMpbMBc42AFyTwCVIczy3gxUqcnJQgstkFgcc1RUCSMZZJrsgJ/wAOMfqSn8DxK5Vapzv0Po1lZ07C15HvvL1fYeZIY6SItZuF7uOpcfmc48SsK1M1JOrLMhNwxjKwuq6yT+A1xEcZNgbb3OUm7Pmj5Ka+Y44LXwyNtTsIjHEMyt9OfooNKpCUX5nqSagxAgIbEMY6lz2vA0Aew/U3MA8ebb/dTgyxp8yTRMKDEeoAQGuoga9rmPF2uBBB4gqSU2nlFdUbDQ1JpJDeGQ3iceF+C3LatjyvY0uNcP8A4in/ABVH41vjqv8AAxVTGNbd5aGji61vut/nSWp4yNvUqT8ibb7bi5QvFfWR00Df4LXB8rwLXa03I8uHqtG5uOZcsdj1vDuEuyg7m4fn2it8Z/uXcBbRc8qeoAKAqXpK2erWOE8R6+JhJF2hz4xxadLuZ53WWEsHYs6tCpF056N+uM/oxYwnailOlRSsa76msFvUcFtRqx/qRq3fCLta29Ztdm3+RqpcdobdiaNo5Wy/ay2FVh0Z56twu+b88JP7m4YvE7SIPmdyjaT7k2A90dxBdSsOCXUvijyr1f7Zm3AJKgg1NmRA36lpuXf+479gtOtcOei2O9Y2FGz80fNPv29l/ccMEwpsb3zWAuxrGAfKxtyQOVyfsFqtl7iq5YgJXSVW5KZ1jq7s/wCY6/YFXidWyjrkgaXA7UdI6Zwc6eRgijBu1jGnNI423uIB8rpnUtK4cqsox2S19+g+4FUdZTxv3Zm6eVzb7WUM06ixJo71BQEAp9I9Jnps7dHR3IPh8w8rfhWiblm/M0MlA68UZ33Y38BQasviZ0KCoIAQEBtpggqqdwA7bO0w+PJSmbNtV5JY6MrbZXY6or3ODZGtEZs/O43Hk33V3LBt3FzTt+m/Yu7ZDZWGgiyR9p7u/Id7j+w8FibycC5uZ15Zlt2J9QawIAQAgFfHdgaGqJc+LI8/NH2T620KspNG3Rvq1LRPT1K0xDYuCDFaWlY9zw+z35raAEm2ng37q3NlHWheTnbyqNY6ItFkd7kWDRy+wVTQzjC6ml0oBDSRd17Dibb0LY6klFXN6mwOtrKDWdJ+JnoVP0iTiaeKmEjWXddznHRoHE/crItDuUF4dPmwceF0D2gRxvMhdnZT3BGj9JprHUNsLC+9QVlJPzNY7/2RZ1FTCKNkbdzGho9BZQc+UuZtm9QQCAh9qQDA4HcWv/BUo2bX4j3ZKYvoqdx39WB7aIzHWWKjJcKDEeuaRvCEJ5PEJPCEAiRSmgxWOUaRVB6uQcLnj72PurPVG9Xh49u+61LhWM86CAEAIAQAgKR24qJ2Y610IvKDGIwRobi2vhqVkXwnftYwdniW2uSyY4ixoZfMRq931PPePlwHgFU0Y6+b94IfE8O+I6uWKUxyROdkeBcHg4EcQbKTYhPkzFrRnBJg9aM3VVEceY3LbEtud5bfVt+WoU5RkVWn1WTThGxDGF8lQ/rpn/MRo3+kHj5pkmpdOWkdEMFBhkcNyxvad3nuN3HlqeHgNFBglNy3O1QUBAeIBL6QMWDIHgHVwyN8b94+yskdG2p43J/ZOAso6dp3iMH31/dQ9zTrPNRsllBiOTFHShmaI9tmoadzhxafPnwUloRi3h9TzBsTjqoeti0scsjD3o3cQfDkVBWcZU5ckvl6nYgEHpGb+nbvdcy3mro6Vv8ABr2Lgi7o8gsR5p7maEAgBACAEBX2HSNq8QnrMo6ulHURG3efrmd42ufdX2WDqOLp0Y0ustX7G7aavMUNmfqSkRs/qdpf0FyiM1GClLL2RIUlOI2NYNzWgeyGKTy8m5QQCAEBi94AuTYISk28I4ZcTHyi/iVODPG3fVkFjO00cYPWSj+hupPoFKRs06CWyFvDMInxKobNMwx0zDoDxHIc78SpbwXq1o0o4W5aAFtBuCocs9QAgK4xOtdhmJCZv6E/6jeBHzeo0KtjKOg6auKOOq2LHLmnVpu0gEHmDqD7Kpzo5aEnEGfE4jSwDUB/Wv8AAN3fhW2Rv1JeFbyfpgttYzzoIAQAgBAL23uMfC0Urx33DIz+p+g9tT6KUss2bSl4lVJ7bs4MCwz4Wkhg+YNzv8XO1N1O7Npz8SpKfyXsQ9RGZsRYD3Kdhef6naM/cqehtfBR9xjUGsCAEB4SgEjaXajLJ1ULTLMdGsHDztx8FdI6VKkoxyzVT7IVc4DquqLAf8OPh4E7vyoyUldRjpBE7hex1HAbiLO76pO0fvooya87ipLqT4UGA9QGb49LjUfjzQqpa4ZghYSOlSizUwktqxwPpuP5Vom9ZS1aNexm0GbD8r3awXaSfo3t/JHojWpadvis30evzJTonpHTS1Fe8aOPVx35Dfb7D3UTfQ0+J1MJUl7ssxUOOCAEAIAQFd7Vy/F4tSUY1jh/jSDxGov6Af5ldaLJ07deFbTqdXohiqpruc4mw5ngFBEI4ikLVBj1EJnNE7DLI7XXlo0X3f8A6pNupTqNLTRDEoNYEAIBZ27x74aA5T/Efo3+6skbdrS5pZZA9H2JULBrJ/vUnefILXJ4NO635R5Ml1Cq+mhYiqaAIAQAgIraDETTtjm+RsrRIObH9l3tcH0Ul4Q58x69CXkbY8xvB5g7ioMcXlZIDbWHNSSj+U/hStzatXiZUGBtmlPwkQ1ne0H0v9tbnyWR9zp1ZRhHnl0PpLAsLZTQRwM7sbQPM8T6m6wt5PJ1qjqTc31O9QYwQAgBAR+PYsylgfPJfKwbhvJOgA8SbKUsmWjSdWagivNkKeo+MnrJ4gPiWODSHB3Vm7Tkdbcctt/JWex1azg6cacH8P39TaQa+eZhJ+FpiGuaDbrpDwcR8o4psS34UVj4n9kKpxWGSsZSshidCX5Dliayx5scO1oeJOqtjQ2lSlGm5tvPuWVU1LYmDNd25oAF3OPIDmqmgk5PQi58Uqx2hQkt5dY3Nby/7poZFCn/AO32O/CsUZPH1jbixIc1wsWkbw4c0KTpuLwKNNg7cVxGVkpcIYGW7Jt2ju/14KW8I2q9Z21Jcu7ODa3oslp2mWmeZmN1LSLPA9NCpU87kW3E41HyzWH9jv6KsfdMHUkpu9jc0RO+w7zT5cFElgi+pKm1UWz3/UfFU1AQAgF7b9t6CYeAPsQVK3Ni1/1UdmyNd19DTSE3cGZHebDb8WR7mGrDkqyj8/qce3FRlpZOZBA8zoPypRsWi82ST2J2LZSvNQ6xkdHG1o+nsNz+pdf0VXLJoXV46i5Ftl/kc1U0AQAgBACAQulWqI+ChvZslQ0u8Q0i35VonR4fH45dkb8Bb2ag5Q0OqpbAchYX9d90Lvdf8UL2xYlNPX08eX4lk7n5XG2Zrhbf76+Slme5aVSE5fC1gjdh9ipoZ+vqAG5L5G3ubnibclLZsXFzGUeWJu2021MEnVwNBe3QvIuGk7wPFEhQtk1mRqLMTbRMrzXNGbVsRt2gToBpYk8k0zgpz0XWdLl+ZJbOYk6pp56hrQ2XLaRo3OfHrf1bp6I9CKkfDnGPQmeh+kIpZKhw7VRK53oNB98yrPc0uJzzVUeyH1VOaU4MPFLtGxsYs2QlwHLO11x7grJvE7nieJYtvoWDUDtO8yqmrD4UYIWBALm3r7UUo5tKstzatF58nD0Uy3oS36ZnfcNKS3IvF/Oz6I2Yg/4vEIKRurWOEkvgGagHzNvsmyLSfg27k92WksZwAQAgBACAEBWXTYS1tJKNzJT+xH4KvA63CtXOPdHZsjiEc0TjC14hD3Wc/e5zjmf6AkBGWqwcJeZ6+n2N9bgMUkonBfHMBbPE7KSOR5pkKo1Hleq9TTjtY2jpXvBc525uYklzjoN6IvSj4k9dhJr4WxsoYZYskrnSTSGoGVr3utlBLSTl3DXkFJnjJylOcXlaJY3J/ZiHCmRF9VKx0wzZo39yM65hE1vZtyIUPJrV3cuWKa079X7m/YSkbFSvO4SOdJY8GG4ZfzA+6MyV25TS+ROdElQXYeAdzJZGjyvf/qKiW5o8Sjiv8kOiqaBV2KjPtHCB8kYJ9Gu/ur/0nXp6WL9WN0jrknmVBjSwjFCQQCnt0/NGY/qLWe5ufsFZG9brljzCjgW0raOhexusr5HFo5DQAn2U4yzPOhz1OZlidFWzzoYXVU1+vqNdd4bvA9d/sqSZyOI3CqT5I7L8j2qnNBACAEAIAQETtNgEVbAYZQbXuCNCHC9iPdSngzUK8qM+aJSGC47PhM8tPIzPHm7TDpu3OYeBI91lazqehqUYXMFOL1/e47R7f0jwOqbM+Q7o8mt/O9reKphmp/C1U/NjHcj66pfU1MZfFngpLSThrmhodvAu8gGykySSp03FPEpbC3jWPR4jiMb5rsp8wYAeDRvufEn7qUsIzUaDt6LUd9ydxjCKWmYOuqb07TmZA0DM7iGkjUjxUZbKQrVJ6RWvcjqrbNnw7w03mmv2Wg2YLWY3X6W8uJKnBmhb4lnsWtsDhPw1DDGRZxbnff6nan20Hoscnlnn7yr4lZyGFQaxWGAjrcYr6n5Yh1bfM2b/ANJV3tg7FTy21On31GpQYwQGMjwASeCEpZeEImO1gc+Q7xTxPld/W4ZIm+d3X9Fc6DWFGK6tL9Ti6L9hDO9tVUNtC03Y0/4hHH+kfdJS6GK/vVBeHDf8F3ALEefPUAIAQAgBACAEAv7UbH01cB1zLPAsJG6OH9x5qVJo2be7qUPhenYqms6OsSppiKa72O0D2ODdP5gTosnMmdqHEaE45nozdRdFeIOdlklYyNxu7tl1/GwGp805kUnxOgtUssY9rejDrIYG0jmtdC0tIfpnvrmJA33v7qqn3NW24lyyk6nX7ETQdDkrm3mqWtdyYC77mynnM8+LRT8sRp2a6MKWmeJXudM9puM1g0HnYb/VVc2zTr8SqVFyrRD0qnOIjavG20dLJO7eBZo+px7o/wBclKWTPb0XVqKKFXYrD3Q0jTJ+rUOM0l9/a7oPpr6qz3OhWkp1HjZaInFBQwlkDRcmyktGLk8IRtr9tGx3jis6Tlwb4u8fBWSOhQt8asYdhdjWmkzVbS6Sd7ZXtPEDuNd4a3sqylrocy8vH4v8vpp+o/MYAAAAANABwVDmN5MkAIAQAgBACAEAIAQAgBACAEAIDXPM1jS95DWtFyTuACEpNvCKqkqjjFaHWIoKV2n/ABHcPf7DzV9kdqMP4Wlj+uX2HOeYC5cQFBghB7IWMb22p4LgOzO5N1P9h6qyiblO0k/iESu2krK5/VQMd2tMrNXHzPBWwkbnJToxzLQethOjEQubPWWfINWx7w083HifsqSn2OTd8R51yU9u5ZyockEAIAQAgBACAEAIAQAgBACAEAIDlxLEYoIzJM8MY3eSfxzKYL06cqj5YrLKS202++Ok6kF8VIDrlHbktz4DwCyqODv2tj4K5nrL8Gn/AMfmONsFHTiNjdBc5ieZNt5KcpmVom+abyzVDheLYgb5ZMp4u7DfvZTlITuLej1Q24D0PMFnVc2Y/RHoPVx19rKrn2NCtxZvSmvqWNhGDQUzckETYx4DU+Z3lUbycqpWnUeZvJ3qDGCAEAIAQAgBACAEAIAQAgBACAEAICtOluvfnhpuyGSAkmwLvQm9vZXgdbh0Fhz6o07MdG9E9ofIJHnkX2H/ACgI5Mm44hWi8LCHvDNmqSn/AEqeNp55bn3Oqq2znVLirU+KTJZQYQQAgBACAEAIAQAgBACA/9k=;" vertex="1" parent="1">
          <mxGeometry x="60.00000000000001" y="277.5" width="39.11" height="40" as="geometry" />
        </mxCell>
        <mxCell id="4T3bCirenjGZTBYiXq4K-40" value="" style="curved=1;startArrow=none;endArrow=block;entryX=0.5;entryY=0;entryDx=0;entryDy=0;" edge="1" parent="1" target="4T3bCirenjGZTBYiXq4K-31">
          <mxGeometry relative="1" as="geometry">
            <Array as="points" />
            <mxPoint x="200" y="330" as="sourcePoint" />
            <mxPoint x="199" y="365" as="targetPoint" />
          </mxGeometry>
        </mxCell>
        <mxCell id="4T3bCirenjGZTBYiXq4K-41" value="Web scrapping" style="edgeLabel;html=1;align=center;verticalAlign=middle;resizable=0;points=[];" vertex="1" connectable="0" parent="4T3bCirenjGZTBYiXq4K-40">
          <mxGeometry x="-0.3918" y="1" relative="1" as="geometry">
            <mxPoint as="offset" />
          </mxGeometry>
        </mxCell>
        <mxCell id="4T3bCirenjGZTBYiXq4K-42" value="" style="curved=1;startArrow=none;endArrow=block;exitX=1;exitY=0.5;exitDx=0;exitDy=0;" edge="1" parent="1" source="4T3bCirenjGZTBYiXq4K-31" target="4T3bCirenjGZTBYiXq4K-29">
          <mxGeometry relative="1" as="geometry">
            <Array as="points">
              <mxPoint x="270" y="420" />
            </Array>
            <mxPoint x="280" y="390" as="sourcePoint" />
            <mxPoint x="281" y="450" as="targetPoint" />
          </mxGeometry>
        </mxCell>
        <mxCell id="4T3bCirenjGZTBYiXq4K-43" value="Chroma DB update" style="edgeLabel;html=1;align=center;verticalAlign=middle;resizable=0;points=[];" vertex="1" connectable="0" parent="4T3bCirenjGZTBYiXq4K-42">
          <mxGeometry x="-0.3918" y="1" relative="1" as="geometry">
            <mxPoint x="41" y="-23" as="offset" />
          </mxGeometry>
        </mxCell>
        <mxCell id="4T3bCirenjGZTBYiXq4K-44" value="" style="curved=1;startArrow=none;endArrow=block;entryX=1;entryY=0.5;entryDx=0;entryDy=0;exitX=0;exitY=0.5;exitDx=0;exitDy=0;" edge="1" parent="1" source="4T3bCirenjGZTBYiXq4K-29" target="4T3bCirenjGZTBYiXq4K-20">
          <mxGeometry relative="1" as="geometry">
            <Array as="points" />
            <mxPoint x="211" y="255" as="sourcePoint" />
            <mxPoint x="211" y="290" as="targetPoint" />
          </mxGeometry>
        </mxCell>
        <mxCell id="4T3bCirenjGZTBYiXq4K-45" value="" style="rounded=0;whiteSpace=wrap;html=1;opacity=70;strokeWidth=2;gradientColor=none;fillColor=none;dashed=1;" vertex="1" parent="1">
          <mxGeometry x="40" y="240" width="350" height="100" as="geometry" />
        </mxCell>
      </root>
    </mxGraphModel>
  </diagram>
</mxfile>
